<mxfile host="app.diagrams.net" agent="Mozilla/5.0 (X11; Linux x86_64; rv:131.0) Gecko/20100101 Firefox/131.0" version="24.7.17">
  <diagram name="Page-1" id="HmlozY09UCpmN13KRDIS">
    <mxGraphModel dx="2192" dy="1845" grid="1" gridSize="10" guides="1" tooltips="1" connect="1" arrows="1" fold="1" page="1" pageScale="1" pageWidth="850" pageHeight="1100" math="0" shadow="0">
      <root>
        <mxCell id="0" />
        <mxCell id="1" parent="0" />
        <mxCell id="2ZaDZYwQvwbcYQ4eUuJH-21" value="upload_date" style="ellipse;whiteSpace=wrap;html=1;fillColor=#dae8fc;strokeColor=#6c8ebf;" parent="1" vertex="1">
          <mxGeometry x="445" y="410" width="90" height="50" as="geometry" />
        </mxCell>
        <mxCell id="2ZaDZYwQvwbcYQ4eUuJH-156" style="edgeStyle=orthogonalEdgeStyle;rounded=0;orthogonalLoop=1;jettySize=auto;html=1;exitX=0.25;exitY=0;exitDx=0;exitDy=0;entryX=0.5;entryY=1;entryDx=0;entryDy=0;endArrow=none;endFill=0;" parent="1" source="2ZaDZYwQvwbcYQ4eUuJH-26" target="2ZaDZYwQvwbcYQ4eUuJH-32" edge="1">
          <mxGeometry relative="1" as="geometry" />
        </mxCell>
        <mxCell id="2ZaDZYwQvwbcYQ4eUuJH-157" style="edgeStyle=orthogonalEdgeStyle;rounded=0;orthogonalLoop=1;jettySize=auto;html=1;exitX=0.5;exitY=0;exitDx=0;exitDy=0;entryX=0;entryY=0.5;entryDx=0;entryDy=0;endArrow=none;endFill=0;" parent="1" source="2ZaDZYwQvwbcYQ4eUuJH-26" target="2ZaDZYwQvwbcYQ4eUuJH-28" edge="1">
          <mxGeometry relative="1" as="geometry" />
        </mxCell>
        <mxCell id="2ZaDZYwQvwbcYQ4eUuJH-159" style="edgeStyle=orthogonalEdgeStyle;rounded=0;orthogonalLoop=1;jettySize=auto;html=1;exitX=0.5;exitY=0;exitDx=0;exitDy=0;endArrow=none;endFill=0;" parent="1" source="2ZaDZYwQvwbcYQ4eUuJH-26" target="2ZaDZYwQvwbcYQ4eUuJH-29" edge="1">
          <mxGeometry relative="1" as="geometry">
            <Array as="points">
              <mxPoint x="280" y="300" />
              <mxPoint x="440" y="300" />
            </Array>
          </mxGeometry>
        </mxCell>
        <mxCell id="2ZaDZYwQvwbcYQ4eUuJH-161" style="edgeStyle=orthogonalEdgeStyle;rounded=0;orthogonalLoop=1;jettySize=auto;html=1;exitX=1;exitY=0.25;exitDx=0;exitDy=0;endArrow=none;endFill=0;" parent="1" source="2ZaDZYwQvwbcYQ4eUuJH-26" target="2ZaDZYwQvwbcYQ4eUuJH-30" edge="1">
          <mxGeometry relative="1" as="geometry" />
        </mxCell>
        <mxCell id="2ZaDZYwQvwbcYQ4eUuJH-162" style="edgeStyle=orthogonalEdgeStyle;rounded=0;orthogonalLoop=1;jettySize=auto;html=1;exitX=1;exitY=0.5;exitDx=0;exitDy=0;entryX=0;entryY=0.5;entryDx=0;entryDy=0;endArrow=none;endFill=0;" parent="1" source="2ZaDZYwQvwbcYQ4eUuJH-26" target="2ZaDZYwQvwbcYQ4eUuJH-31" edge="1">
          <mxGeometry relative="1" as="geometry" />
        </mxCell>
        <mxCell id="MiYvdM3eh1lu-KrJbxXC-10" style="edgeStyle=orthogonalEdgeStyle;rounded=0;orthogonalLoop=1;jettySize=auto;html=1;exitX=0.25;exitY=1;exitDx=0;exitDy=0;entryX=0.5;entryY=1;entryDx=0;entryDy=0;" edge="1" parent="1" source="2ZaDZYwQvwbcYQ4eUuJH-26" target="MiYvdM3eh1lu-KrJbxXC-9">
          <mxGeometry relative="1" as="geometry" />
        </mxCell>
        <mxCell id="MiYvdM3eh1lu-KrJbxXC-12" style="edgeStyle=orthogonalEdgeStyle;rounded=0;orthogonalLoop=1;jettySize=auto;html=1;exitX=0.5;exitY=1;exitDx=0;exitDy=0;entryX=0.5;entryY=0;entryDx=0;entryDy=0;" edge="1" parent="1" source="2ZaDZYwQvwbcYQ4eUuJH-26" target="MiYvdM3eh1lu-KrJbxXC-7">
          <mxGeometry relative="1" as="geometry" />
        </mxCell>
        <mxCell id="MiYvdM3eh1lu-KrJbxXC-14" style="edgeStyle=orthogonalEdgeStyle;rounded=0;orthogonalLoop=1;jettySize=auto;html=1;exitX=0.75;exitY=1;exitDx=0;exitDy=0;entryX=0;entryY=0.5;entryDx=0;entryDy=0;" edge="1" parent="1" source="2ZaDZYwQvwbcYQ4eUuJH-26" target="2ZaDZYwQvwbcYQ4eUuJH-35">
          <mxGeometry relative="1" as="geometry">
            <Array as="points">
              <mxPoint x="350" y="350" />
              <mxPoint x="350" y="520" />
            </Array>
          </mxGeometry>
        </mxCell>
        <mxCell id="MiYvdM3eh1lu-KrJbxXC-66" style="edgeStyle=orthogonalEdgeStyle;rounded=0;orthogonalLoop=1;jettySize=auto;html=1;exitX=0.25;exitY=1;exitDx=0;exitDy=0;entryX=1;entryY=0.5;entryDx=0;entryDy=0;" edge="1" parent="1" source="2ZaDZYwQvwbcYQ4eUuJH-26" target="MiYvdM3eh1lu-KrJbxXC-65">
          <mxGeometry relative="1" as="geometry" />
        </mxCell>
        <mxCell id="MiYvdM3eh1lu-KrJbxXC-71" style="edgeStyle=orthogonalEdgeStyle;rounded=0;orthogonalLoop=1;jettySize=auto;html=1;exitX=0.25;exitY=1;exitDx=0;exitDy=0;" edge="1" parent="1" source="2ZaDZYwQvwbcYQ4eUuJH-26">
          <mxGeometry relative="1" as="geometry">
            <mxPoint x="-90" y="1480" as="targetPoint" />
            <Array as="points">
              <mxPoint x="255" y="410" />
              <mxPoint x="-90" y="410" />
              <mxPoint x="-90" y="880" />
            </Array>
          </mxGeometry>
        </mxCell>
        <mxCell id="2ZaDZYwQvwbcYQ4eUuJH-26" value="User" style="whiteSpace=wrap;html=1;align=center;fillColor=#dae8fc;strokeColor=#6c8ebf;" parent="1" vertex="1">
          <mxGeometry x="230" y="310" width="100" height="40" as="geometry" />
        </mxCell>
        <mxCell id="2ZaDZYwQvwbcYQ4eUuJH-155" style="edgeStyle=orthogonalEdgeStyle;rounded=0;orthogonalLoop=1;jettySize=auto;html=1;exitX=0.5;exitY=1;exitDx=0;exitDy=0;entryX=0;entryY=0;entryDx=0;entryDy=0;endArrow=none;endFill=0;" parent="1" source="2ZaDZYwQvwbcYQ4eUuJH-27" target="2ZaDZYwQvwbcYQ4eUuJH-26" edge="1">
          <mxGeometry relative="1" as="geometry" />
        </mxCell>
        <mxCell id="2ZaDZYwQvwbcYQ4eUuJH-27" value="&lt;div&gt;email&lt;/div&gt;" style="ellipse;whiteSpace=wrap;html=1;align=center;fillColor=#dae8fc;strokeColor=#6c8ebf;" parent="1" vertex="1">
          <mxGeometry x="180" y="230" width="100" height="40" as="geometry" />
        </mxCell>
        <mxCell id="2ZaDZYwQvwbcYQ4eUuJH-28" value="&lt;b&gt;&lt;u&gt;user_id&lt;/u&gt;&lt;/b&gt;" style="ellipse;whiteSpace=wrap;html=1;align=center;fillColor=#dae8fc;strokeColor=#6c8ebf;" parent="1" vertex="1">
          <mxGeometry x="325" y="260" width="100" height="40" as="geometry" />
        </mxCell>
        <mxCell id="2ZaDZYwQvwbcYQ4eUuJH-29" value="password" style="ellipse;whiteSpace=wrap;html=1;align=center;fillColor=#dae8fc;strokeColor=#6c8ebf;" parent="1" vertex="1">
          <mxGeometry x="390" y="210" width="100" height="40" as="geometry" />
        </mxCell>
        <mxCell id="2ZaDZYwQvwbcYQ4eUuJH-30" value="&lt;div&gt;username&lt;/div&gt;" style="ellipse;whiteSpace=wrap;html=1;align=center;fillColor=#dae8fc;strokeColor=#6c8ebf;" parent="1" vertex="1">
          <mxGeometry x="470" y="250" width="100" height="40" as="geometry" />
        </mxCell>
        <mxCell id="2ZaDZYwQvwbcYQ4eUuJH-31" value="&lt;div&gt;status&lt;/div&gt;" style="ellipse;whiteSpace=wrap;html=1;align=center;fillColor=#dae8fc;strokeColor=#6c8ebf;" parent="1" vertex="1">
          <mxGeometry x="520" y="310" width="100" height="40" as="geometry" />
        </mxCell>
        <mxCell id="2ZaDZYwQvwbcYQ4eUuJH-32" value="&lt;div&gt;registration_date&lt;/div&gt;" style="ellipse;whiteSpace=wrap;html=1;align=center;fillColor=#dae8fc;strokeColor=#6c8ebf;" parent="1" vertex="1">
          <mxGeometry x="270" y="190" width="100" height="40" as="geometry" />
        </mxCell>
        <mxCell id="2ZaDZYwQvwbcYQ4eUuJH-128" style="edgeStyle=orthogonalEdgeStyle;rounded=0;orthogonalLoop=1;jettySize=auto;html=1;exitX=0;exitY=0.25;exitDx=0;exitDy=0;entryX=0;entryY=1;entryDx=0;entryDy=0;" parent="1" source="2ZaDZYwQvwbcYQ4eUuJH-26" target="2ZaDZYwQvwbcYQ4eUuJH-124" edge="1">
          <mxGeometry relative="1" as="geometry">
            <Array as="points">
              <mxPoint x="140" y="320" />
              <mxPoint x="140" y="170" />
              <mxPoint x="150" y="170" />
            </Array>
          </mxGeometry>
        </mxCell>
        <mxCell id="2ZaDZYwQvwbcYQ4eUuJH-63" style="edgeStyle=orthogonalEdgeStyle;rounded=0;orthogonalLoop=1;jettySize=auto;html=1;exitX=1;exitY=0.5;exitDx=0;exitDy=0;" parent="1" source="2ZaDZYwQvwbcYQ4eUuJH-35" target="2ZaDZYwQvwbcYQ4eUuJH-55" edge="1">
          <mxGeometry relative="1" as="geometry" />
        </mxCell>
        <mxCell id="2ZaDZYwQvwbcYQ4eUuJH-164" style="edgeStyle=orthogonalEdgeStyle;rounded=0;orthogonalLoop=1;jettySize=auto;html=1;exitX=0;exitY=0;exitDx=0;exitDy=0;endArrow=none;endFill=0;" parent="1" source="2ZaDZYwQvwbcYQ4eUuJH-35" target="2ZaDZYwQvwbcYQ4eUuJH-21" edge="1">
          <mxGeometry relative="1" as="geometry" />
        </mxCell>
        <mxCell id="2ZaDZYwQvwbcYQ4eUuJH-35" value="design" style="shape=rhombus;perimeter=rhombusPerimeter;whiteSpace=wrap;html=1;align=center;fillColor=#dae8fc;strokeColor=#6c8ebf;" parent="1" vertex="1">
          <mxGeometry x="500" y="490" width="120" height="60" as="geometry" />
        </mxCell>
        <mxCell id="2ZaDZYwQvwbcYQ4eUuJH-37" value="&lt;u&gt;&lt;b&gt;pattern_id&lt;/b&gt;&lt;/u&gt;" style="ellipse;whiteSpace=wrap;html=1;align=center;fillColor=#dae8fc;strokeColor=#6c8ebf;" parent="1" vertex="1">
          <mxGeometry x="750" y="374.5" width="100" height="40" as="geometry" />
        </mxCell>
        <mxCell id="2ZaDZYwQvwbcYQ4eUuJH-39" style="edgeStyle=orthogonalEdgeStyle;rounded=0;orthogonalLoop=1;jettySize=auto;html=1;exitX=0.5;exitY=1;exitDx=0;exitDy=0;" parent="1" source="2ZaDZYwQvwbcYQ4eUuJH-37" target="2ZaDZYwQvwbcYQ4eUuJH-37" edge="1">
          <mxGeometry relative="1" as="geometry" />
        </mxCell>
        <mxCell id="2ZaDZYwQvwbcYQ4eUuJH-40" value="name" style="ellipse;whiteSpace=wrap;html=1;align=center;fillColor=#dae8fc;strokeColor=#6c8ebf;" parent="1" vertex="1">
          <mxGeometry x="870" y="370" width="100" height="40" as="geometry" />
        </mxCell>
        <mxCell id="2ZaDZYwQvwbcYQ4eUuJH-41" value="&lt;div&gt;description&lt;/div&gt;" style="ellipse;whiteSpace=wrap;html=1;align=center;fillColor=#dae8fc;strokeColor=#6c8ebf;" parent="1" vertex="1">
          <mxGeometry x="990" y="370" width="100" height="40" as="geometry" />
        </mxCell>
        <mxCell id="2ZaDZYwQvwbcYQ4eUuJH-42" value="base_price" style="ellipse;whiteSpace=wrap;html=1;align=center;fillColor=#dae8fc;strokeColor=#6c8ebf;" parent="1" vertex="1">
          <mxGeometry x="1050" y="425" width="100" height="40" as="geometry" />
        </mxCell>
        <mxCell id="2ZaDZYwQvwbcYQ4eUuJH-43" value="materials" style="ellipse;whiteSpace=wrap;html=1;align=center;fillColor=#dae8fc;strokeColor=#6c8ebf;" parent="1" vertex="1">
          <mxGeometry x="810" y="425" width="100" height="40" as="geometry" />
        </mxCell>
        <mxCell id="2ZaDZYwQvwbcYQ4eUuJH-52" value="&lt;u&gt;&lt;b&gt;role_id&lt;/b&gt;&lt;/u&gt;" style="ellipse;whiteSpace=wrap;html=1;align=center;fillColor=#dae8fc;strokeColor=#6c8ebf;" parent="1" vertex="1">
          <mxGeometry x="-60" y="530" width="100" height="40" as="geometry" />
        </mxCell>
        <mxCell id="2ZaDZYwQvwbcYQ4eUuJH-53" value="&lt;div&gt;type&lt;/div&gt;" style="ellipse;whiteSpace=wrap;html=1;align=center;fillColor=#dae8fc;strokeColor=#6c8ebf;" parent="1" vertex="1">
          <mxGeometry x="60" y="680" width="100" height="40" as="geometry" />
        </mxCell>
        <mxCell id="2ZaDZYwQvwbcYQ4eUuJH-70" value="" style="edgeStyle=orthogonalEdgeStyle;rounded=0;orthogonalLoop=1;jettySize=auto;html=1;entryX=0.5;entryY=0;entryDx=0;entryDy=0;exitX=0;exitY=0.75;exitDx=0;exitDy=0;" parent="1" target="2ZaDZYwQvwbcYQ4eUuJH-71" edge="1">
          <mxGeometry relative="1" as="geometry">
            <mxPoint x="840" y="520" as="targetPoint" />
            <Array as="points">
              <mxPoint x="740" y="580" />
              <mxPoint x="900" y="580" />
            </Array>
            <mxPoint x="740" y="542.5" as="sourcePoint" />
          </mxGeometry>
        </mxCell>
        <mxCell id="caHkFue1k4wD9SIDWnCT-8" style="edgeStyle=orthogonalEdgeStyle;rounded=0;orthogonalLoop=1;jettySize=auto;html=1;" parent="1" source="2ZaDZYwQvwbcYQ4eUuJH-55" target="caHkFue1k4wD9SIDWnCT-5" edge="1">
          <mxGeometry relative="1" as="geometry" />
        </mxCell>
        <mxCell id="MiYvdM3eh1lu-KrJbxXC-17" style="edgeStyle=orthogonalEdgeStyle;rounded=0;orthogonalLoop=1;jettySize=auto;html=1;exitX=1;exitY=0.25;exitDx=0;exitDy=0;entryX=0.5;entryY=1;entryDx=0;entryDy=0;" edge="1" parent="1" source="2ZaDZYwQvwbcYQ4eUuJH-55" target="2ZaDZYwQvwbcYQ4eUuJH-37">
          <mxGeometry relative="1" as="geometry" />
        </mxCell>
        <mxCell id="MiYvdM3eh1lu-KrJbxXC-18" style="edgeStyle=orthogonalEdgeStyle;rounded=0;orthogonalLoop=1;jettySize=auto;html=1;exitX=1;exitY=0.25;exitDx=0;exitDy=0;entryX=0.5;entryY=1;entryDx=0;entryDy=0;" edge="1" parent="1" source="2ZaDZYwQvwbcYQ4eUuJH-55" target="2ZaDZYwQvwbcYQ4eUuJH-43">
          <mxGeometry relative="1" as="geometry" />
        </mxCell>
        <mxCell id="MiYvdM3eh1lu-KrJbxXC-20" style="edgeStyle=orthogonalEdgeStyle;rounded=0;orthogonalLoop=1;jettySize=auto;html=1;exitX=1;exitY=0.25;exitDx=0;exitDy=0;entryX=0.5;entryY=1;entryDx=0;entryDy=0;" edge="1" parent="1" source="2ZaDZYwQvwbcYQ4eUuJH-55" target="2ZaDZYwQvwbcYQ4eUuJH-40">
          <mxGeometry relative="1" as="geometry">
            <mxPoint x="920" y="420" as="targetPoint" />
          </mxGeometry>
        </mxCell>
        <mxCell id="MiYvdM3eh1lu-KrJbxXC-21" style="edgeStyle=orthogonalEdgeStyle;rounded=0;orthogonalLoop=1;jettySize=auto;html=1;exitX=1;exitY=0.25;exitDx=0;exitDy=0;entryX=0.5;entryY=1;entryDx=0;entryDy=0;" edge="1" parent="1" source="2ZaDZYwQvwbcYQ4eUuJH-55" target="2ZaDZYwQvwbcYQ4eUuJH-73">
          <mxGeometry relative="1" as="geometry" />
        </mxCell>
        <mxCell id="MiYvdM3eh1lu-KrJbxXC-22" style="edgeStyle=orthogonalEdgeStyle;rounded=0;orthogonalLoop=1;jettySize=auto;html=1;exitX=1;exitY=0.25;exitDx=0;exitDy=0;entryX=0.5;entryY=1;entryDx=0;entryDy=0;" edge="1" parent="1" source="2ZaDZYwQvwbcYQ4eUuJH-55" target="2ZaDZYwQvwbcYQ4eUuJH-41">
          <mxGeometry relative="1" as="geometry" />
        </mxCell>
        <mxCell id="MiYvdM3eh1lu-KrJbxXC-23" style="edgeStyle=orthogonalEdgeStyle;rounded=0;orthogonalLoop=1;jettySize=auto;html=1;exitX=1;exitY=0.25;exitDx=0;exitDy=0;entryX=0.5;entryY=1;entryDx=0;entryDy=0;" edge="1" parent="1" source="2ZaDZYwQvwbcYQ4eUuJH-55" target="2ZaDZYwQvwbcYQ4eUuJH-42">
          <mxGeometry relative="1" as="geometry" />
        </mxCell>
        <mxCell id="2ZaDZYwQvwbcYQ4eUuJH-55" value="Pattern" style="whiteSpace=wrap;html=1;align=center;fillColor=#dae8fc;strokeColor=#6c8ebf;" parent="1" vertex="1">
          <mxGeometry x="650" y="500" width="100" height="40" as="geometry" />
        </mxCell>
        <mxCell id="2ZaDZYwQvwbcYQ4eUuJH-66" style="edgeStyle=orthogonalEdgeStyle;rounded=0;orthogonalLoop=1;jettySize=auto;html=1;exitX=1;exitY=0.5;exitDx=0;exitDy=0;" parent="1" source="2ZaDZYwQvwbcYQ4eUuJH-56" target="2ZaDZYwQvwbcYQ4eUuJH-64" edge="1">
          <mxGeometry relative="1" as="geometry" />
        </mxCell>
        <mxCell id="2ZaDZYwQvwbcYQ4eUuJH-218" style="edgeStyle=orthogonalEdgeStyle;rounded=0;orthogonalLoop=1;jettySize=auto;html=1;exitX=0.5;exitY=1;exitDx=0;exitDy=0;entryX=0.5;entryY=0;entryDx=0;entryDy=0;" parent="1" source="2ZaDZYwQvwbcYQ4eUuJH-56" target="2ZaDZYwQvwbcYQ4eUuJH-142" edge="1">
          <mxGeometry relative="1" as="geometry" />
        </mxCell>
        <mxCell id="2ZaDZYwQvwbcYQ4eUuJH-222" style="edgeStyle=orthogonalEdgeStyle;rounded=0;orthogonalLoop=1;jettySize=auto;html=1;exitX=0;exitY=0.5;exitDx=0;exitDy=0;endArrow=none;endFill=0;" parent="1" source="2ZaDZYwQvwbcYQ4eUuJH-56" target="2ZaDZYwQvwbcYQ4eUuJH-53" edge="1">
          <mxGeometry relative="1" as="geometry" />
        </mxCell>
        <mxCell id="2ZaDZYwQvwbcYQ4eUuJH-56" value="Library" style="whiteSpace=wrap;html=1;align=center;fillColor=#dae8fc;strokeColor=#6c8ebf;" parent="1" vertex="1">
          <mxGeometry x="230" y="650" width="100" height="40" as="geometry" />
        </mxCell>
        <mxCell id="2ZaDZYwQvwbcYQ4eUuJH-67" style="edgeStyle=orthogonalEdgeStyle;rounded=0;orthogonalLoop=1;jettySize=auto;html=1;exitX=1;exitY=0.5;exitDx=0;exitDy=0;" parent="1" source="2ZaDZYwQvwbcYQ4eUuJH-64" target="2ZaDZYwQvwbcYQ4eUuJH-55" edge="1">
          <mxGeometry relative="1" as="geometry" />
        </mxCell>
        <mxCell id="2ZaDZYwQvwbcYQ4eUuJH-223" style="edgeStyle=orthogonalEdgeStyle;rounded=0;orthogonalLoop=1;jettySize=auto;html=1;exitX=0.5;exitY=1;exitDx=0;exitDy=0;endArrow=none;endFill=0;" parent="1" source="2ZaDZYwQvwbcYQ4eUuJH-64" target="2ZaDZYwQvwbcYQ4eUuJH-68" edge="1">
          <mxGeometry relative="1" as="geometry" />
        </mxCell>
        <mxCell id="2ZaDZYwQvwbcYQ4eUuJH-64" value="contain" style="shape=rhombus;perimeter=rhombusPerimeter;whiteSpace=wrap;html=1;align=center;fillColor=#dae8fc;strokeColor=#6c8ebf;" parent="1" vertex="1">
          <mxGeometry x="500" y="640" width="120" height="60" as="geometry" />
        </mxCell>
        <mxCell id="2ZaDZYwQvwbcYQ4eUuJH-68" value="add_date" style="ellipse;whiteSpace=wrap;html=1;fillColor=#dae8fc;strokeColor=#6c8ebf;" parent="1" vertex="1">
          <mxGeometry x="515" y="740" width="90" height="50" as="geometry" />
        </mxCell>
        <mxCell id="2ZaDZYwQvwbcYQ4eUuJH-178" style="edgeStyle=orthogonalEdgeStyle;rounded=0;orthogonalLoop=1;jettySize=auto;html=1;" parent="1" source="2ZaDZYwQvwbcYQ4eUuJH-71" target="2ZaDZYwQvwbcYQ4eUuJH-72" edge="1">
          <mxGeometry relative="1" as="geometry" />
        </mxCell>
        <mxCell id="2ZaDZYwQvwbcYQ4eUuJH-187" style="edgeStyle=orthogonalEdgeStyle;rounded=0;orthogonalLoop=1;jettySize=auto;html=1;exitX=0;exitY=0.5;exitDx=0;exitDy=0;endArrow=none;endFill=0;" parent="1" source="2ZaDZYwQvwbcYQ4eUuJH-71" target="2ZaDZYwQvwbcYQ4eUuJH-74" edge="1">
          <mxGeometry relative="1" as="geometry" />
        </mxCell>
        <mxCell id="2ZaDZYwQvwbcYQ4eUuJH-71" value="made with" style="shape=rhombus;perimeter=rhombusPerimeter;whiteSpace=wrap;html=1;align=center;fillColor=#dae8fc;strokeColor=#6c8ebf;" parent="1" vertex="1">
          <mxGeometry x="840" y="690" width="120" height="60" as="geometry" />
        </mxCell>
        <mxCell id="2ZaDZYwQvwbcYQ4eUuJH-188" style="edgeStyle=orthogonalEdgeStyle;rounded=0;orthogonalLoop=1;jettySize=auto;html=1;exitX=0.5;exitY=1;exitDx=0;exitDy=0;entryX=0;entryY=0.5;entryDx=0;entryDy=0;" parent="1" source="2ZaDZYwQvwbcYQ4eUuJH-72" target="2ZaDZYwQvwbcYQ4eUuJH-83" edge="1">
          <mxGeometry relative="1" as="geometry" />
        </mxCell>
        <mxCell id="2ZaDZYwQvwbcYQ4eUuJH-189" style="edgeStyle=orthogonalEdgeStyle;rounded=0;orthogonalLoop=1;jettySize=auto;html=1;exitX=0.75;exitY=0;exitDx=0;exitDy=0;entryX=0;entryY=1;entryDx=0;entryDy=0;endArrow=none;endFill=0;" parent="1" source="2ZaDZYwQvwbcYQ4eUuJH-72" target="2ZaDZYwQvwbcYQ4eUuJH-76" edge="1">
          <mxGeometry relative="1" as="geometry">
            <Array as="points">
              <mxPoint x="950" y="860" />
              <mxPoint x="950" y="805" />
              <mxPoint x="1085" y="805" />
            </Array>
          </mxGeometry>
        </mxCell>
        <mxCell id="2ZaDZYwQvwbcYQ4eUuJH-192" style="edgeStyle=orthogonalEdgeStyle;rounded=0;orthogonalLoop=1;jettySize=auto;html=1;exitX=1;exitY=0;exitDx=0;exitDy=0;entryX=0.5;entryY=1;entryDx=0;entryDy=0;endArrow=none;endFill=0;" parent="1" source="2ZaDZYwQvwbcYQ4eUuJH-72" target="2ZaDZYwQvwbcYQ4eUuJH-77" edge="1">
          <mxGeometry relative="1" as="geometry">
            <Array as="points">
              <mxPoint x="1225" y="860" />
            </Array>
          </mxGeometry>
        </mxCell>
        <mxCell id="2ZaDZYwQvwbcYQ4eUuJH-193" style="edgeStyle=orthogonalEdgeStyle;rounded=0;orthogonalLoop=1;jettySize=auto;html=1;exitX=1;exitY=0.25;exitDx=0;exitDy=0;endArrow=none;endFill=0;" parent="1" source="2ZaDZYwQvwbcYQ4eUuJH-72" target="2ZaDZYwQvwbcYQ4eUuJH-79" edge="1">
          <mxGeometry relative="1" as="geometry">
            <Array as="points">
              <mxPoint x="950" y="840" />
              <mxPoint x="1130" y="840" />
            </Array>
          </mxGeometry>
        </mxCell>
        <mxCell id="2ZaDZYwQvwbcYQ4eUuJH-195" style="edgeStyle=orthogonalEdgeStyle;rounded=0;orthogonalLoop=1;jettySize=auto;html=1;exitX=1;exitY=0.5;exitDx=0;exitDy=0;entryX=0;entryY=0.5;entryDx=0;entryDy=0;endArrow=none;endFill=0;" parent="1" source="2ZaDZYwQvwbcYQ4eUuJH-72" target="2ZaDZYwQvwbcYQ4eUuJH-90" edge="1">
          <mxGeometry relative="1" as="geometry" />
        </mxCell>
        <mxCell id="MiYvdM3eh1lu-KrJbxXC-61" style="edgeStyle=orthogonalEdgeStyle;rounded=0;orthogonalLoop=1;jettySize=auto;html=1;exitX=0.75;exitY=0;exitDx=0;exitDy=0;" edge="1" parent="1" source="2ZaDZYwQvwbcYQ4eUuJH-72">
          <mxGeometry relative="1" as="geometry">
            <mxPoint x="1410" y="450" as="targetPoint" />
            <Array as="points">
              <mxPoint x="925" y="760" />
              <mxPoint x="1040" y="760" />
              <mxPoint x="1040" y="560" />
              <mxPoint x="1410" y="560" />
            </Array>
          </mxGeometry>
        </mxCell>
        <mxCell id="2ZaDZYwQvwbcYQ4eUuJH-72" value="Material" style="whiteSpace=wrap;html=1;align=center;fillColor=#dae8fc;strokeColor=#6c8ebf;" parent="1" vertex="1">
          <mxGeometry x="850" y="860" width="100" height="40" as="geometry" />
        </mxCell>
        <mxCell id="2ZaDZYwQvwbcYQ4eUuJH-73" value="status" style="ellipse;whiteSpace=wrap;html=1;align=center;fillColor=#dae8fc;strokeColor=#6c8ebf;" parent="1" vertex="1">
          <mxGeometry x="930" y="425" width="100" height="40" as="geometry" />
        </mxCell>
        <mxCell id="2ZaDZYwQvwbcYQ4eUuJH-74" value="quantity" style="ellipse;whiteSpace=wrap;html=1;align=center;fillColor=#dae8fc;strokeColor=#6c8ebf;" parent="1" vertex="1">
          <mxGeometry x="700" y="700" width="100" height="40" as="geometry" />
        </mxCell>
        <mxCell id="2ZaDZYwQvwbcYQ4eUuJH-76" value="&lt;div&gt;&lt;u&gt;&lt;b&gt;material_id&lt;/b&gt;&lt;/u&gt;&lt;/div&gt;" style="ellipse;whiteSpace=wrap;html=1;align=center;fillColor=#dae8fc;strokeColor=#6c8ebf;" parent="1" vertex="1">
          <mxGeometry x="1070" y="710" width="100" height="40" as="geometry" />
        </mxCell>
        <mxCell id="2ZaDZYwQvwbcYQ4eUuJH-77" value="name" style="ellipse;whiteSpace=wrap;html=1;align=center;fillColor=#dae8fc;strokeColor=#6c8ebf;" parent="1" vertex="1">
          <mxGeometry x="1175" y="650" width="100" height="40" as="geometry" />
        </mxCell>
        <mxCell id="2ZaDZYwQvwbcYQ4eUuJH-79" value="description" style="ellipse;whiteSpace=wrap;html=1;align=center;fillColor=#dae8fc;strokeColor=#6c8ebf;" parent="1" vertex="1">
          <mxGeometry x="1110" y="785" width="100" height="40" as="geometry" />
        </mxCell>
        <mxCell id="2ZaDZYwQvwbcYQ4eUuJH-83" value="" style="triangle;whiteSpace=wrap;html=1;rotation=90;" parent="1" vertex="1">
          <mxGeometry x="880" y="950" width="40" height="50" as="geometry" />
        </mxCell>
        <mxCell id="2ZaDZYwQvwbcYQ4eUuJH-198" style="edgeStyle=orthogonalEdgeStyle;rounded=0;orthogonalLoop=1;jettySize=auto;html=1;exitX=1;exitY=0.5;exitDx=0;exitDy=0;exitPerimeter=0;entryX=0.5;entryY=0;entryDx=0;entryDy=0;" parent="1" source="2ZaDZYwQvwbcYQ4eUuJH-85" target="2ZaDZYwQvwbcYQ4eUuJH-87" edge="1">
          <mxGeometry relative="1" as="geometry" />
        </mxCell>
        <mxCell id="2ZaDZYwQvwbcYQ4eUuJH-199" style="edgeStyle=orthogonalEdgeStyle;rounded=0;orthogonalLoop=1;jettySize=auto;html=1;exitX=1;exitY=0.5;exitDx=0;exitDy=0;exitPerimeter=0;entryX=0.5;entryY=0;entryDx=0;entryDy=0;" parent="1" source="2ZaDZYwQvwbcYQ4eUuJH-85" target="2ZaDZYwQvwbcYQ4eUuJH-97" edge="1">
          <mxGeometry relative="1" as="geometry" />
        </mxCell>
        <mxCell id="2ZaDZYwQvwbcYQ4eUuJH-85" value="" style="shape=requiredInterface;html=1;verticalLabelPosition=bottom;sketch=0;rotation=90;" parent="1" vertex="1">
          <mxGeometry x="880" y="940" width="40" height="100" as="geometry" />
        </mxCell>
        <mxCell id="2ZaDZYwQvwbcYQ4eUuJH-87" value="Fabric" style="whiteSpace=wrap;html=1;align=center;fillColor=#dae8fc;strokeColor=#6c8ebf;" parent="1" vertex="1">
          <mxGeometry x="720" y="1050" width="100" height="40" as="geometry" />
        </mxCell>
        <mxCell id="2ZaDZYwQvwbcYQ4eUuJH-212" style="edgeStyle=orthogonalEdgeStyle;rounded=0;orthogonalLoop=1;jettySize=auto;html=1;exitX=0.25;exitY=0;exitDx=0;exitDy=0;entryX=0.5;entryY=1;entryDx=0;entryDy=0;endArrow=none;endFill=0;" parent="1" source="2ZaDZYwQvwbcYQ4eUuJH-88" target="2ZaDZYwQvwbcYQ4eUuJH-106" edge="1">
          <mxGeometry relative="1" as="geometry" />
        </mxCell>
        <mxCell id="2ZaDZYwQvwbcYQ4eUuJH-213" style="edgeStyle=orthogonalEdgeStyle;rounded=0;orthogonalLoop=1;jettySize=auto;html=1;exitX=0;exitY=0;exitDx=0;exitDy=0;entryX=1;entryY=0.5;entryDx=0;entryDy=0;endArrow=none;endFill=0;" parent="1" source="2ZaDZYwQvwbcYQ4eUuJH-88" target="2ZaDZYwQvwbcYQ4eUuJH-99" edge="1">
          <mxGeometry relative="1" as="geometry" />
        </mxCell>
        <mxCell id="2ZaDZYwQvwbcYQ4eUuJH-214" style="edgeStyle=orthogonalEdgeStyle;rounded=0;orthogonalLoop=1;jettySize=auto;html=1;exitX=0;exitY=0.25;exitDx=0;exitDy=0;entryX=1;entryY=0.5;entryDx=0;entryDy=0;endArrow=none;endFill=0;" parent="1" source="2ZaDZYwQvwbcYQ4eUuJH-88" target="2ZaDZYwQvwbcYQ4eUuJH-101" edge="1">
          <mxGeometry relative="1" as="geometry" />
        </mxCell>
        <mxCell id="2ZaDZYwQvwbcYQ4eUuJH-215" style="edgeStyle=orthogonalEdgeStyle;rounded=0;orthogonalLoop=1;jettySize=auto;html=1;exitX=0;exitY=0.25;exitDx=0;exitDy=0;entryX=1;entryY=0.5;entryDx=0;entryDy=0;endSize=7;endArrow=none;endFill=0;" parent="1" source="2ZaDZYwQvwbcYQ4eUuJH-88" target="2ZaDZYwQvwbcYQ4eUuJH-93" edge="1">
          <mxGeometry relative="1" as="geometry" />
        </mxCell>
        <mxCell id="2ZaDZYwQvwbcYQ4eUuJH-216" style="edgeStyle=orthogonalEdgeStyle;rounded=0;orthogonalLoop=1;jettySize=auto;html=1;exitX=0;exitY=0.75;exitDx=0;exitDy=0;entryX=1;entryY=0.5;entryDx=0;entryDy=0;endArrow=none;endFill=0;" parent="1" source="2ZaDZYwQvwbcYQ4eUuJH-88" target="2ZaDZYwQvwbcYQ4eUuJH-102" edge="1">
          <mxGeometry relative="1" as="geometry" />
        </mxCell>
        <mxCell id="2ZaDZYwQvwbcYQ4eUuJH-217" style="edgeStyle=orthogonalEdgeStyle;rounded=0;orthogonalLoop=1;jettySize=auto;html=1;exitX=0.25;exitY=1;exitDx=0;exitDy=0;entryX=1;entryY=0;entryDx=0;entryDy=0;endArrow=none;endFill=0;" parent="1" source="2ZaDZYwQvwbcYQ4eUuJH-88" target="2ZaDZYwQvwbcYQ4eUuJH-103" edge="1">
          <mxGeometry relative="1" as="geometry" />
        </mxCell>
        <mxCell id="2ZaDZYwQvwbcYQ4eUuJH-88" value="Yarn" style="whiteSpace=wrap;html=1;align=center;fillColor=#dae8fc;strokeColor=#6c8ebf;" parent="1" vertex="1">
          <mxGeometry x="800" y="1240" width="100" height="40" as="geometry" />
        </mxCell>
        <mxCell id="2ZaDZYwQvwbcYQ4eUuJH-89" value="Thread" style="whiteSpace=wrap;html=1;align=center;fillColor=#dae8fc;strokeColor=#6c8ebf;" parent="1" vertex="1">
          <mxGeometry x="960" y="1240" width="100" height="40" as="geometry" />
        </mxCell>
        <mxCell id="2ZaDZYwQvwbcYQ4eUuJH-90" value="care_instructions" style="ellipse;whiteSpace=wrap;html=1;align=center;fillColor=#dae8fc;strokeColor=#6c8ebf;" parent="1" vertex="1">
          <mxGeometry x="1070" y="880" width="100" height="40" as="geometry" />
        </mxCell>
        <mxCell id="2ZaDZYwQvwbcYQ4eUuJH-200" style="edgeStyle=orthogonalEdgeStyle;rounded=0;orthogonalLoop=1;jettySize=auto;html=1;exitX=1;exitY=0.5;exitDx=0;exitDy=0;entryX=0;entryY=0.25;entryDx=0;entryDy=0;endArrow=none;endFill=0;" parent="1" source="2ZaDZYwQvwbcYQ4eUuJH-91" target="2ZaDZYwQvwbcYQ4eUuJH-87" edge="1">
          <mxGeometry relative="1" as="geometry" />
        </mxCell>
        <mxCell id="2ZaDZYwQvwbcYQ4eUuJH-91" value="width" style="ellipse;whiteSpace=wrap;html=1;align=center;fillColor=#dae8fc;strokeColor=#6c8ebf;" parent="1" vertex="1">
          <mxGeometry x="570" y="1010" width="100" height="40" as="geometry" />
        </mxCell>
        <mxCell id="2ZaDZYwQvwbcYQ4eUuJH-211" style="edgeStyle=orthogonalEdgeStyle;rounded=0;orthogonalLoop=1;jettySize=auto;html=1;exitX=0.75;exitY=0;exitDx=0;exitDy=0;entryX=0.5;entryY=1;entryDx=0;entryDy=0;endArrow=none;endFill=0;" parent="1" source="2ZaDZYwQvwbcYQ4eUuJH-92" target="2ZaDZYwQvwbcYQ4eUuJH-107" edge="1">
          <mxGeometry relative="1" as="geometry" />
        </mxCell>
        <mxCell id="2ZaDZYwQvwbcYQ4eUuJH-92" value="Floss" style="whiteSpace=wrap;html=1;align=center;fillColor=#dae8fc;strokeColor=#6c8ebf;" parent="1" vertex="1">
          <mxGeometry x="1120" y="1240" width="100" height="40" as="geometry" />
        </mxCell>
        <mxCell id="2ZaDZYwQvwbcYQ4eUuJH-93" value="weight" style="ellipse;whiteSpace=wrap;html=1;align=center;fillColor=#dae8fc;strokeColor=#6c8ebf;" parent="1" vertex="1">
          <mxGeometry x="605" y="1240" width="100" height="40" as="geometry" />
        </mxCell>
        <mxCell id="2ZaDZYwQvwbcYQ4eUuJH-201" style="edgeStyle=orthogonalEdgeStyle;rounded=0;orthogonalLoop=1;jettySize=auto;html=1;exitX=1;exitY=0.5;exitDx=0;exitDy=0;endArrow=none;endFill=0;" parent="1" source="2ZaDZYwQvwbcYQ4eUuJH-94" target="2ZaDZYwQvwbcYQ4eUuJH-87" edge="1">
          <mxGeometry relative="1" as="geometry" />
        </mxCell>
        <mxCell id="2ZaDZYwQvwbcYQ4eUuJH-94" value="composition" style="ellipse;whiteSpace=wrap;html=1;align=center;fillColor=#dae8fc;strokeColor=#6c8ebf;" parent="1" vertex="1">
          <mxGeometry x="570" y="1070" width="100" height="40" as="geometry" />
        </mxCell>
        <mxCell id="2ZaDZYwQvwbcYQ4eUuJH-202" style="edgeStyle=orthogonalEdgeStyle;rounded=0;orthogonalLoop=1;jettySize=auto;html=1;exitX=0.75;exitY=0;exitDx=0;exitDy=0;endArrow=none;endFill=0;" parent="1" source="2ZaDZYwQvwbcYQ4eUuJH-97" edge="1">
          <mxGeometry relative="1" as="geometry">
            <mxPoint x="1010" y="970" as="targetPoint" />
          </mxGeometry>
        </mxCell>
        <mxCell id="2ZaDZYwQvwbcYQ4eUuJH-203" style="edgeStyle=orthogonalEdgeStyle;rounded=0;orthogonalLoop=1;jettySize=auto;html=1;exitX=0.75;exitY=0;exitDx=0;exitDy=0;endArrow=none;endFill=0;" parent="1" source="2ZaDZYwQvwbcYQ4eUuJH-97" edge="1">
          <mxGeometry relative="1" as="geometry">
            <mxPoint x="1100" y="990" as="targetPoint" />
          </mxGeometry>
        </mxCell>
        <mxCell id="2ZaDZYwQvwbcYQ4eUuJH-204" style="edgeStyle=orthogonalEdgeStyle;rounded=0;orthogonalLoop=1;jettySize=auto;html=1;exitX=1;exitY=0;exitDx=0;exitDy=0;entryX=0;entryY=1;entryDx=0;entryDy=0;endArrow=none;endFill=0;" parent="1" source="2ZaDZYwQvwbcYQ4eUuJH-97" target="2ZaDZYwQvwbcYQ4eUuJH-98" edge="1">
          <mxGeometry relative="1" as="geometry" />
        </mxCell>
        <mxCell id="2ZaDZYwQvwbcYQ4eUuJH-205" style="edgeStyle=orthogonalEdgeStyle;rounded=0;orthogonalLoop=1;jettySize=auto;html=1;exitX=1;exitY=0.5;exitDx=0;exitDy=0;endArrow=none;endFill=0;" parent="1" source="2ZaDZYwQvwbcYQ4eUuJH-97" target="2ZaDZYwQvwbcYQ4eUuJH-100" edge="1">
          <mxGeometry relative="1" as="geometry" />
        </mxCell>
        <mxCell id="2ZaDZYwQvwbcYQ4eUuJH-206" style="edgeStyle=orthogonalEdgeStyle;rounded=0;orthogonalLoop=1;jettySize=auto;html=1;exitX=0.5;exitY=1;exitDx=0;exitDy=0;" parent="1" source="2ZaDZYwQvwbcYQ4eUuJH-97" target="2ZaDZYwQvwbcYQ4eUuJH-196" edge="1">
          <mxGeometry relative="1" as="geometry" />
        </mxCell>
        <mxCell id="2ZaDZYwQvwbcYQ4eUuJH-97" value="Threading" style="whiteSpace=wrap;html=1;align=center;fillColor=#dae8fc;strokeColor=#6c8ebf;" parent="1" vertex="1">
          <mxGeometry x="960" y="1050" width="100" height="40" as="geometry" />
        </mxCell>
        <mxCell id="2ZaDZYwQvwbcYQ4eUuJH-98" value="category" style="ellipse;whiteSpace=wrap;html=1;align=center;fillColor=#dae8fc;strokeColor=#6c8ebf;" parent="1" vertex="1">
          <mxGeometry x="1140" y="990" width="100" height="40" as="geometry" />
        </mxCell>
        <mxCell id="2ZaDZYwQvwbcYQ4eUuJH-99" value="gauge" style="ellipse;whiteSpace=wrap;html=1;align=center;fillColor=#dae8fc;strokeColor=#6c8ebf;" parent="1" vertex="1">
          <mxGeometry x="680" y="1150" width="100" height="40" as="geometry" />
        </mxCell>
        <mxCell id="2ZaDZYwQvwbcYQ4eUuJH-100" value="color" style="ellipse;whiteSpace=wrap;html=1;align=center;fillColor=#dae8fc;strokeColor=#6c8ebf;" parent="1" vertex="1">
          <mxGeometry x="1170" y="1050" width="100" height="40" as="geometry" />
        </mxCell>
        <mxCell id="2ZaDZYwQvwbcYQ4eUuJH-101" value="Yardage" style="ellipse;whiteSpace=wrap;html=1;align=center;fillColor=#dae8fc;strokeColor=#6c8ebf;" parent="1" vertex="1">
          <mxGeometry x="610" y="1190" width="100" height="40" as="geometry" />
        </mxCell>
        <mxCell id="2ZaDZYwQvwbcYQ4eUuJH-102" value="needle_size" style="ellipse;whiteSpace=wrap;html=1;align=center;fillColor=#dae8fc;strokeColor=#6c8ebf;" parent="1" vertex="1">
          <mxGeometry x="620" y="1290" width="100" height="40" as="geometry" />
        </mxCell>
        <mxCell id="2ZaDZYwQvwbcYQ4eUuJH-103" value="hook_size" style="ellipse;whiteSpace=wrap;html=1;align=center;fillColor=#dae8fc;strokeColor=#6c8ebf;" parent="1" vertex="1">
          <mxGeometry x="700" y="1340" width="100" height="40" as="geometry" />
        </mxCell>
        <mxCell id="2ZaDZYwQvwbcYQ4eUuJH-105" value="brand" style="ellipse;whiteSpace=wrap;html=1;align=center;fillColor=#dae8fc;strokeColor=#6c8ebf;" parent="1" vertex="1">
          <mxGeometry x="960" y="930" width="100" height="40" as="geometry" />
        </mxCell>
        <mxCell id="2ZaDZYwQvwbcYQ4eUuJH-106" value="dye_lot" style="ellipse;whiteSpace=wrap;html=1;align=center;fillColor=#dae8fc;strokeColor=#6c8ebf;" parent="1" vertex="1">
          <mxGeometry x="780" y="1120" width="100" height="40" as="geometry" />
        </mxCell>
        <mxCell id="2ZaDZYwQvwbcYQ4eUuJH-107" value="strands" style="ellipse;whiteSpace=wrap;html=1;align=center;fillColor=#dae8fc;strokeColor=#6c8ebf;" parent="1" vertex="1">
          <mxGeometry x="1200" y="1150" width="100" height="40" as="geometry" />
        </mxCell>
        <mxCell id="2ZaDZYwQvwbcYQ4eUuJH-108" value="fibers" style="ellipse;whiteSpace=wrap;html=1;align=center;fillColor=#dae8fc;strokeColor=#6c8ebf;" parent="1" vertex="1">
          <mxGeometry x="1050" y="950" width="100" height="40" as="geometry" />
        </mxCell>
        <mxCell id="2ZaDZYwQvwbcYQ4eUuJH-110" value="N:M" style="text;html=1;align=center;verticalAlign=middle;whiteSpace=wrap;rounded=0;" parent="1" vertex="1">
          <mxGeometry x="835" y="655" width="60" height="30" as="geometry" />
        </mxCell>
        <mxCell id="2ZaDZYwQvwbcYQ4eUuJH-112" value="N:M" style="text;html=1;align=center;verticalAlign=middle;whiteSpace=wrap;rounded=0;" parent="1" vertex="1">
          <mxGeometry x="530" y="610" width="60" height="30" as="geometry" />
        </mxCell>
        <mxCell id="2ZaDZYwQvwbcYQ4eUuJH-118" value="quantity" style="ellipse;whiteSpace=wrap;html=1;align=center;fillColor=#dae8fc;strokeColor=#6c8ebf;" parent="1" vertex="1">
          <mxGeometry x="630" y="15" width="100" height="40" as="geometry" />
        </mxCell>
        <mxCell id="2ZaDZYwQvwbcYQ4eUuJH-121" value="added_date" style="ellipse;whiteSpace=wrap;html=1;align=center;fillColor=#dae8fc;strokeColor=#6c8ebf;" parent="1" vertex="1">
          <mxGeometry x="560" y="-25" width="100" height="40" as="geometry" />
        </mxCell>
        <mxCell id="2ZaDZYwQvwbcYQ4eUuJH-122" value="1:1" style="text;html=1;align=center;verticalAlign=middle;whiteSpace=wrap;rounded=0;" parent="1" vertex="1">
          <mxGeometry x="150" y="80" width="60" height="30" as="geometry" />
        </mxCell>
        <mxCell id="2ZaDZYwQvwbcYQ4eUuJH-130" style="edgeStyle=orthogonalEdgeStyle;rounded=0;orthogonalLoop=1;jettySize=auto;html=1;exitX=1;exitY=0.5;exitDx=0;exitDy=0;entryX=0;entryY=0.5;entryDx=0;entryDy=0;" parent="1" source="2ZaDZYwQvwbcYQ4eUuJH-123" target="2ZaDZYwQvwbcYQ4eUuJH-127" edge="1">
          <mxGeometry relative="1" as="geometry" />
        </mxCell>
        <mxCell id="2ZaDZYwQvwbcYQ4eUuJH-175" style="edgeStyle=orthogonalEdgeStyle;rounded=0;orthogonalLoop=1;jettySize=auto;html=1;exitX=0.5;exitY=0;exitDx=0;exitDy=0;endArrow=none;endFill=0;" parent="1" source="2ZaDZYwQvwbcYQ4eUuJH-123" target="2ZaDZYwQvwbcYQ4eUuJH-135" edge="1">
          <mxGeometry relative="1" as="geometry">
            <Array as="points">
              <mxPoint x="350" y="120" />
            </Array>
          </mxGeometry>
        </mxCell>
        <mxCell id="caHkFue1k4wD9SIDWnCT-66" style="edgeStyle=orthogonalEdgeStyle;rounded=0;orthogonalLoop=1;jettySize=auto;html=1;exitX=1;exitY=0.25;exitDx=0;exitDy=0;entryX=0.5;entryY=1;entryDx=0;entryDy=0;endArrow=none;endFill=0;" parent="1" source="2ZaDZYwQvwbcYQ4eUuJH-123" target="caHkFue1k4wD9SIDWnCT-65" edge="1">
          <mxGeometry relative="1" as="geometry">
            <Array as="points">
              <mxPoint x="420" y="130" />
              <mxPoint x="420" y="98" />
              <mxPoint x="450" y="98" />
            </Array>
          </mxGeometry>
        </mxCell>
        <mxCell id="2ZaDZYwQvwbcYQ4eUuJH-123" value="Shopping_Cart" style="whiteSpace=wrap;html=1;align=center;fillColor=#dae8fc;strokeColor=#6c8ebf;" parent="1" vertex="1">
          <mxGeometry x="330" y="120" width="100" height="40" as="geometry" />
        </mxCell>
        <mxCell id="2ZaDZYwQvwbcYQ4eUuJH-129" style="edgeStyle=orthogonalEdgeStyle;rounded=0;orthogonalLoop=1;jettySize=auto;html=1;exitX=1;exitY=0.5;exitDx=0;exitDy=0;entryX=0;entryY=0.5;entryDx=0;entryDy=0;" parent="1" source="2ZaDZYwQvwbcYQ4eUuJH-124" target="2ZaDZYwQvwbcYQ4eUuJH-123" edge="1">
          <mxGeometry relative="1" as="geometry" />
        </mxCell>
        <mxCell id="2ZaDZYwQvwbcYQ4eUuJH-124" value="&lt;div&gt;have&lt;/div&gt;" style="shape=rhombus;perimeter=rhombusPerimeter;whiteSpace=wrap;html=1;align=center;fillColor=#dae8fc;strokeColor=#6c8ebf;" parent="1" vertex="1">
          <mxGeometry x="120" y="110" width="120" height="60" as="geometry" />
        </mxCell>
        <mxCell id="2ZaDZYwQvwbcYQ4eUuJH-131" style="edgeStyle=orthogonalEdgeStyle;rounded=0;orthogonalLoop=1;jettySize=auto;html=1;exitX=0.5;exitY=1;exitDx=0;exitDy=0;entryX=0.5;entryY=0;entryDx=0;entryDy=0;" parent="1" source="2ZaDZYwQvwbcYQ4eUuJH-127" target="2ZaDZYwQvwbcYQ4eUuJH-55" edge="1">
          <mxGeometry relative="1" as="geometry" />
        </mxCell>
        <mxCell id="2ZaDZYwQvwbcYQ4eUuJH-127" value="contain" style="shape=rhombus;perimeter=rhombusPerimeter;whiteSpace=wrap;html=1;align=center;fillColor=#dae8fc;strokeColor=#6c8ebf;" parent="1" vertex="1">
          <mxGeometry x="570" y="110" width="120" height="60" as="geometry" />
        </mxCell>
        <mxCell id="2ZaDZYwQvwbcYQ4eUuJH-135" value="&lt;b&gt;&lt;u&gt;cart_id&lt;/u&gt;&lt;/b&gt;" style="ellipse;whiteSpace=wrap;html=1;align=center;fillColor=#dae8fc;strokeColor=#6c8ebf;" parent="1" vertex="1">
          <mxGeometry x="290" y="30" width="100" height="40" as="geometry" />
        </mxCell>
        <mxCell id="2ZaDZYwQvwbcYQ4eUuJH-169" style="edgeStyle=orthogonalEdgeStyle;rounded=0;orthogonalLoop=1;jettySize=auto;html=1;exitX=0.5;exitY=0;exitDx=0;exitDy=0;endArrow=none;endFill=0;" parent="1" source="2ZaDZYwQvwbcYQ4eUuJH-136" target="2ZaDZYwQvwbcYQ4eUuJH-137" edge="1">
          <mxGeometry relative="1" as="geometry" />
        </mxCell>
        <mxCell id="2ZaDZYwQvwbcYQ4eUuJH-170" style="edgeStyle=orthogonalEdgeStyle;rounded=0;orthogonalLoop=1;jettySize=auto;html=1;exitX=0.75;exitY=0;exitDx=0;exitDy=0;entryX=0.5;entryY=1;entryDx=0;entryDy=0;endArrow=none;endFill=0;" parent="1" source="2ZaDZYwQvwbcYQ4eUuJH-136" target="2ZaDZYwQvwbcYQ4eUuJH-141" edge="1">
          <mxGeometry relative="1" as="geometry" />
        </mxCell>
        <mxCell id="2ZaDZYwQvwbcYQ4eUuJH-172" style="edgeStyle=orthogonalEdgeStyle;rounded=0;orthogonalLoop=1;jettySize=auto;html=1;exitX=0.5;exitY=1;exitDx=0;exitDy=0;endArrow=none;endFill=0;" parent="1" source="2ZaDZYwQvwbcYQ4eUuJH-136" target="2ZaDZYwQvwbcYQ4eUuJH-138" edge="1">
          <mxGeometry relative="1" as="geometry" />
        </mxCell>
        <mxCell id="2ZaDZYwQvwbcYQ4eUuJH-173" style="edgeStyle=orthogonalEdgeStyle;rounded=0;orthogonalLoop=1;jettySize=auto;html=1;exitX=0.25;exitY=1;exitDx=0;exitDy=0;entryX=0.5;entryY=0;entryDx=0;entryDy=0;endArrow=none;endFill=0;" parent="1" source="2ZaDZYwQvwbcYQ4eUuJH-136" edge="1">
          <mxGeometry relative="1" as="geometry">
            <mxPoint x="-380" y="50" as="targetPoint" />
          </mxGeometry>
        </mxCell>
        <mxCell id="2ZaDZYwQvwbcYQ4eUuJH-136" value="Transaction" style="whiteSpace=wrap;html=1;align=center;fillColor=#dae8fc;strokeColor=#6c8ebf;" parent="1" vertex="1">
          <mxGeometry x="-350" y="-30" width="100" height="40" as="geometry" />
        </mxCell>
        <mxCell id="2ZaDZYwQvwbcYQ4eUuJH-137" value="&lt;b&gt;&lt;u&gt;transaction_id&lt;/u&gt;&lt;/b&gt;" style="ellipse;whiteSpace=wrap;html=1;align=center;fillColor=#dae8fc;strokeColor=#6c8ebf;" parent="1" vertex="1">
          <mxGeometry x="-350" y="-105" width="100" height="40" as="geometry" />
        </mxCell>
        <mxCell id="2ZaDZYwQvwbcYQ4eUuJH-138" value="total_amount" style="ellipse;whiteSpace=wrap;html=1;align=center;fillColor=#dae8fc;strokeColor=#6c8ebf;" parent="1" vertex="1">
          <mxGeometry x="-350" y="100" width="100" height="40" as="geometry" />
        </mxCell>
        <mxCell id="2ZaDZYwQvwbcYQ4eUuJH-139" value="payment_method" style="ellipse;whiteSpace=wrap;html=1;align=center;fillColor=#dae8fc;strokeColor=#6c8ebf;" parent="1" vertex="1">
          <mxGeometry x="-430" y="50" width="100" height="40" as="geometry" />
        </mxCell>
        <mxCell id="2ZaDZYwQvwbcYQ4eUuJH-140" value="order_date" style="ellipse;whiteSpace=wrap;html=1;align=center;fillColor=#dae8fc;strokeColor=#6c8ebf;" parent="1" vertex="1">
          <mxGeometry x="70" y="-175" width="100" height="40" as="geometry" />
        </mxCell>
        <mxCell id="2ZaDZYwQvwbcYQ4eUuJH-141" value="status" style="ellipse;whiteSpace=wrap;html=1;align=center;fillColor=#dae8fc;strokeColor=#6c8ebf;" parent="1" vertex="1">
          <mxGeometry x="-250" y="-130" width="100" height="40" as="geometry" />
        </mxCell>
        <mxCell id="2ZaDZYwQvwbcYQ4eUuJH-219" style="edgeStyle=orthogonalEdgeStyle;rounded=0;orthogonalLoop=1;jettySize=auto;html=1;exitX=0.5;exitY=1;exitDx=0;exitDy=0;" parent="1" source="2ZaDZYwQvwbcYQ4eUuJH-142" target="2ZaDZYwQvwbcYQ4eUuJH-143" edge="1">
          <mxGeometry relative="1" as="geometry" />
        </mxCell>
        <mxCell id="2ZaDZYwQvwbcYQ4eUuJH-220" style="edgeStyle=orthogonalEdgeStyle;rounded=0;orthogonalLoop=1;jettySize=auto;html=1;exitX=1;exitY=0.5;exitDx=0;exitDy=0;endArrow=none;endFill=0;" parent="1" source="2ZaDZYwQvwbcYQ4eUuJH-142" target="2ZaDZYwQvwbcYQ4eUuJH-144" edge="1">
          <mxGeometry relative="1" as="geometry" />
        </mxCell>
        <mxCell id="2ZaDZYwQvwbcYQ4eUuJH-142" value="contain" style="shape=rhombus;perimeter=rhombusPerimeter;whiteSpace=wrap;html=1;align=center;fillColor=#dae8fc;strokeColor=#6c8ebf;" parent="1" vertex="1">
          <mxGeometry x="220" y="740" width="120" height="60" as="geometry" />
        </mxCell>
        <mxCell id="2ZaDZYwQvwbcYQ4eUuJH-224" style="edgeStyle=orthogonalEdgeStyle;rounded=0;orthogonalLoop=1;jettySize=auto;html=1;exitX=1;exitY=0.5;exitDx=0;exitDy=0;entryX=0;entryY=0.5;entryDx=0;entryDy=0;" parent="1" source="2ZaDZYwQvwbcYQ4eUuJH-143" target="2ZaDZYwQvwbcYQ4eUuJH-147" edge="1">
          <mxGeometry relative="1" as="geometry" />
        </mxCell>
        <mxCell id="2ZaDZYwQvwbcYQ4eUuJH-227" style="edgeStyle=orthogonalEdgeStyle;rounded=0;orthogonalLoop=1;jettySize=auto;html=1;exitX=0;exitY=0.5;exitDx=0;exitDy=0;endArrow=none;endFill=0;" parent="1" source="2ZaDZYwQvwbcYQ4eUuJH-143" target="2ZaDZYwQvwbcYQ4eUuJH-146" edge="1">
          <mxGeometry relative="1" as="geometry" />
        </mxCell>
        <mxCell id="MiYvdM3eh1lu-KrJbxXC-59" style="edgeStyle=orthogonalEdgeStyle;rounded=0;orthogonalLoop=1;jettySize=auto;html=1;exitX=0.5;exitY=1;exitDx=0;exitDy=0;entryX=0.5;entryY=0;entryDx=0;entryDy=0;" edge="1" parent="1" source="2ZaDZYwQvwbcYQ4eUuJH-143" target="MiYvdM3eh1lu-KrJbxXC-58">
          <mxGeometry relative="1" as="geometry" />
        </mxCell>
        <mxCell id="MiYvdM3eh1lu-KrJbxXC-77" style="edgeStyle=orthogonalEdgeStyle;rounded=0;orthogonalLoop=1;jettySize=auto;html=1;exitX=0.25;exitY=1;exitDx=0;exitDy=0;" edge="1" parent="1" source="2ZaDZYwQvwbcYQ4eUuJH-143" target="MiYvdM3eh1lu-KrJbxXC-76">
          <mxGeometry relative="1" as="geometry">
            <Array as="points">
              <mxPoint x="255" y="970" />
              <mxPoint x="150" y="970" />
            </Array>
          </mxGeometry>
        </mxCell>
        <mxCell id="2ZaDZYwQvwbcYQ4eUuJH-143" value="Proyects" style="whiteSpace=wrap;html=1;align=center;fillColor=#dae8fc;strokeColor=#6c8ebf;" parent="1" vertex="1">
          <mxGeometry x="230" y="840" width="100" height="40" as="geometry" />
        </mxCell>
        <mxCell id="2ZaDZYwQvwbcYQ4eUuJH-144" value="creation_date" style="ellipse;whiteSpace=wrap;html=1;fillColor=#dae8fc;strokeColor=#6c8ebf;" parent="1" vertex="1">
          <mxGeometry x="370" y="750" width="90" height="50" as="geometry" />
        </mxCell>
        <mxCell id="2ZaDZYwQvwbcYQ4eUuJH-146" value="&lt;b&gt;&lt;u&gt;proyect_id&lt;/u&gt;&lt;/b&gt;" style="ellipse;whiteSpace=wrap;html=1;align=center;fillColor=#dae8fc;strokeColor=#6c8ebf;" parent="1" vertex="1">
          <mxGeometry x="90" y="900" width="100" height="40" as="geometry" />
        </mxCell>
        <mxCell id="2ZaDZYwQvwbcYQ4eUuJH-225" style="edgeStyle=orthogonalEdgeStyle;rounded=0;orthogonalLoop=1;jettySize=auto;html=1;exitX=1;exitY=0.5;exitDx=0;exitDy=0;" parent="1" source="2ZaDZYwQvwbcYQ4eUuJH-147" target="2ZaDZYwQvwbcYQ4eUuJH-72" edge="1">
          <mxGeometry relative="1" as="geometry" />
        </mxCell>
        <mxCell id="2ZaDZYwQvwbcYQ4eUuJH-147" value="made with" style="shape=rhombus;perimeter=rhombusPerimeter;whiteSpace=wrap;html=1;align=center;fillColor=#dae8fc;strokeColor=#6c8ebf;" parent="1" vertex="1">
          <mxGeometry x="500" y="840" width="120" height="60" as="geometry" />
        </mxCell>
        <mxCell id="2ZaDZYwQvwbcYQ4eUuJH-166" value="1:N" style="text;html=1;align=center;verticalAlign=middle;whiteSpace=wrap;rounded=0;" parent="1" vertex="1">
          <mxGeometry x="-180" y="-70" width="60" height="30" as="geometry" />
        </mxCell>
        <mxCell id="2ZaDZYwQvwbcYQ4eUuJH-174" style="edgeStyle=orthogonalEdgeStyle;rounded=0;orthogonalLoop=1;jettySize=auto;html=1;" parent="1" source="2ZaDZYwQvwbcYQ4eUuJH-167" target="2ZaDZYwQvwbcYQ4eUuJH-136" edge="1">
          <mxGeometry relative="1" as="geometry" />
        </mxCell>
        <mxCell id="2ZaDZYwQvwbcYQ4eUuJH-167" value="generate" style="shape=rhombus;perimeter=rhombusPerimeter;whiteSpace=wrap;html=1;align=center;fillColor=#dae8fc;strokeColor=#6c8ebf;" parent="1" vertex="1">
          <mxGeometry x="-210" y="-40" width="120" height="60" as="geometry" />
        </mxCell>
        <mxCell id="2ZaDZYwQvwbcYQ4eUuJH-196" value="" style="triangle;whiteSpace=wrap;html=1;rotation=90;" parent="1" vertex="1">
          <mxGeometry x="990" y="1130" width="40" height="50" as="geometry" />
        </mxCell>
        <mxCell id="2ZaDZYwQvwbcYQ4eUuJH-207" style="edgeStyle=orthogonalEdgeStyle;rounded=0;orthogonalLoop=1;jettySize=auto;html=1;exitX=1;exitY=0.5;exitDx=0;exitDy=0;exitPerimeter=0;entryX=0.5;entryY=0;entryDx=0;entryDy=0;" parent="1" source="2ZaDZYwQvwbcYQ4eUuJH-197" target="2ZaDZYwQvwbcYQ4eUuJH-88" edge="1">
          <mxGeometry relative="1" as="geometry" />
        </mxCell>
        <mxCell id="2ZaDZYwQvwbcYQ4eUuJH-208" style="edgeStyle=orthogonalEdgeStyle;rounded=0;orthogonalLoop=1;jettySize=auto;html=1;exitX=1;exitY=0.5;exitDx=0;exitDy=0;exitPerimeter=0;" parent="1" source="2ZaDZYwQvwbcYQ4eUuJH-197" target="2ZaDZYwQvwbcYQ4eUuJH-89" edge="1">
          <mxGeometry relative="1" as="geometry" />
        </mxCell>
        <mxCell id="2ZaDZYwQvwbcYQ4eUuJH-209" style="edgeStyle=orthogonalEdgeStyle;rounded=0;orthogonalLoop=1;jettySize=auto;html=1;exitX=1;exitY=0.5;exitDx=0;exitDy=0;exitPerimeter=0;entryX=0.5;entryY=0;entryDx=0;entryDy=0;" parent="1" source="2ZaDZYwQvwbcYQ4eUuJH-197" target="2ZaDZYwQvwbcYQ4eUuJH-92" edge="1">
          <mxGeometry relative="1" as="geometry" />
        </mxCell>
        <mxCell id="2ZaDZYwQvwbcYQ4eUuJH-197" value="" style="shape=requiredInterface;html=1;verticalLabelPosition=bottom;sketch=0;rotation=90;" parent="1" vertex="1">
          <mxGeometry x="990" y="1120" width="40" height="100" as="geometry" />
        </mxCell>
        <mxCell id="2ZaDZYwQvwbcYQ4eUuJH-226" value="N:M" style="text;html=1;align=center;verticalAlign=middle;whiteSpace=wrap;rounded=0;" parent="1" vertex="1">
          <mxGeometry x="530" y="810" width="60" height="30" as="geometry" />
        </mxCell>
        <mxCell id="2ZaDZYwQvwbcYQ4eUuJH-229" style="edgeStyle=orthogonalEdgeStyle;rounded=0;orthogonalLoop=1;jettySize=auto;html=1;exitX=0.5;exitY=1;exitDx=0;exitDy=0;" parent="1" edge="1">
          <mxGeometry relative="1" as="geometry">
            <mxPoint x="340" y="970" as="sourcePoint" />
            <mxPoint x="340" y="970" as="targetPoint" />
          </mxGeometry>
        </mxCell>
        <mxCell id="2ZaDZYwQvwbcYQ4eUuJH-248" value="1: N" style="text;html=1;align=center;verticalAlign=middle;whiteSpace=wrap;rounded=0;" parent="1" vertex="1">
          <mxGeometry x="835" y="830" width="60" height="30" as="geometry" />
        </mxCell>
        <mxCell id="caHkFue1k4wD9SIDWnCT-39" style="edgeStyle=orthogonalEdgeStyle;rounded=0;orthogonalLoop=1;jettySize=auto;html=1;exitX=0.25;exitY=0;exitDx=0;exitDy=0;entryX=0.5;entryY=1;entryDx=0;entryDy=0;endArrow=none;endFill=0;" parent="1" source="caHkFue1k4wD9SIDWnCT-2" target="caHkFue1k4wD9SIDWnCT-38" edge="1">
          <mxGeometry relative="1" as="geometry" />
        </mxCell>
        <mxCell id="caHkFue1k4wD9SIDWnCT-41" style="edgeStyle=orthogonalEdgeStyle;rounded=0;orthogonalLoop=1;jettySize=auto;html=1;exitX=0;exitY=0.5;exitDx=0;exitDy=0;entryX=1;entryY=0.5;entryDx=0;entryDy=0;" parent="1" source="caHkFue1k4wD9SIDWnCT-2" target="2ZaDZYwQvwbcYQ4eUuJH-167" edge="1">
          <mxGeometry relative="1" as="geometry" />
        </mxCell>
        <mxCell id="f8JcQYoLbgSDuw3i2od2-8" style="edgeStyle=none;curved=0;rounded=0;orthogonalLoop=1;jettySize=auto;html=1;entryX=0.89;entryY=0.05;entryDx=0;entryDy=0;fontSize=12;startSize=8;endSize=8;entryPerimeter=0;" parent="1" source="caHkFue1k4wD9SIDWnCT-2" target="2ZaDZYwQvwbcYQ4eUuJH-55" edge="1">
          <mxGeometry relative="1" as="geometry">
            <Array as="points">
              <mxPoint x="740" y="-65" />
              <mxPoint x="740" y="90" />
              <mxPoint x="740" y="230" />
            </Array>
          </mxGeometry>
        </mxCell>
        <mxCell id="MiYvdM3eh1lu-KrJbxXC-4" style="edgeStyle=orthogonalEdgeStyle;rounded=0;orthogonalLoop=1;jettySize=auto;html=1;exitX=0.25;exitY=1;exitDx=0;exitDy=0;entryX=0;entryY=0;entryDx=0;entryDy=0;" edge="1" parent="1" source="caHkFue1k4wD9SIDWnCT-2">
          <mxGeometry relative="1" as="geometry">
            <mxPoint x="-10" y="25" as="targetPoint" />
          </mxGeometry>
        </mxCell>
        <mxCell id="MiYvdM3eh1lu-KrJbxXC-8" style="edgeStyle=orthogonalEdgeStyle;rounded=0;orthogonalLoop=1;jettySize=auto;html=1;exitX=1;exitY=0.75;exitDx=0;exitDy=0;entryX=0;entryY=0.75;entryDx=0;entryDy=0;" edge="1" parent="1" source="caHkFue1k4wD9SIDWnCT-2" target="2ZaDZYwQvwbcYQ4eUuJH-26">
          <mxGeometry relative="1" as="geometry">
            <Array as="points">
              <mxPoint x="100" y="-55" />
              <mxPoint x="100" y="340" />
            </Array>
          </mxGeometry>
        </mxCell>
        <mxCell id="caHkFue1k4wD9SIDWnCT-2" value="Shopping order" style="whiteSpace=wrap;html=1;align=center;fillColor=#dae8fc;strokeColor=#6c8ebf;" parent="1" vertex="1">
          <mxGeometry x="-30" y="-85" width="100" height="40" as="geometry" />
        </mxCell>
        <mxCell id="MiYvdM3eh1lu-KrJbxXC-15" style="edgeStyle=orthogonalEdgeStyle;rounded=0;orthogonalLoop=1;jettySize=auto;html=1;entryX=0.5;entryY=1;entryDx=0;entryDy=0;" edge="1" parent="1" source="caHkFue1k4wD9SIDWnCT-5" target="2LeaAFC_3eUPRFLgof5f-5">
          <mxGeometry relative="1" as="geometry" />
        </mxCell>
        <mxCell id="caHkFue1k4wD9SIDWnCT-5" value="contain" style="shape=rhombus;perimeter=rhombusPerimeter;whiteSpace=wrap;html=1;align=center;fillColor=#dae8fc;strokeColor=#6c8ebf;" parent="1" vertex="1">
          <mxGeometry x="1140" y="310" width="120" height="70" as="geometry" />
        </mxCell>
        <mxCell id="caHkFue1k4wD9SIDWnCT-7" style="edgeStyle=orthogonalEdgeStyle;rounded=0;orthogonalLoop=1;jettySize=auto;html=1;exitX=1;exitY=0;exitDx=0;exitDy=0;entryX=0.68;entryY=0.05;entryDx=0;entryDy=0;entryPerimeter=0;" parent="1" source="2ZaDZYwQvwbcYQ4eUuJH-55" target="2ZaDZYwQvwbcYQ4eUuJH-55" edge="1">
          <mxGeometry relative="1" as="geometry" />
        </mxCell>
        <mxCell id="caHkFue1k4wD9SIDWnCT-38" value="&lt;b&gt;&lt;u&gt;order_id&lt;/u&gt;&lt;/b&gt;" style="ellipse;whiteSpace=wrap;html=1;align=center;fillColor=#dae8fc;strokeColor=#6c8ebf;" parent="1" vertex="1">
          <mxGeometry x="-40" y="-165" width="100" height="40" as="geometry" />
        </mxCell>
        <mxCell id="caHkFue1k4wD9SIDWnCT-40" style="edgeStyle=orthogonalEdgeStyle;rounded=0;orthogonalLoop=1;jettySize=auto;html=1;exitX=0.75;exitY=0;exitDx=0;exitDy=0;entryX=0.4;entryY=0.9;entryDx=0;entryDy=0;entryPerimeter=0;endArrow=none;endFill=0;" parent="1" source="caHkFue1k4wD9SIDWnCT-2" target="2ZaDZYwQvwbcYQ4eUuJH-140" edge="1">
          <mxGeometry relative="1" as="geometry" />
        </mxCell>
        <mxCell id="caHkFue1k4wD9SIDWnCT-63" style="edgeStyle=orthogonalEdgeStyle;rounded=0;orthogonalLoop=1;jettySize=auto;html=1;exitX=0.25;exitY=0;exitDx=0;exitDy=0;entryX=1;entryY=1;entryDx=0;entryDy=0;endArrow=none;endFill=0;" parent="1" source="caHkFue1k4wD9SIDWnCT-54" target="caHkFue1k4wD9SIDWnCT-58" edge="1">
          <mxGeometry relative="1" as="geometry" />
        </mxCell>
        <mxCell id="caHkFue1k4wD9SIDWnCT-64" style="edgeStyle=orthogonalEdgeStyle;rounded=0;orthogonalLoop=1;jettySize=auto;html=1;exitX=0;exitY=0.5;exitDx=0;exitDy=0;endArrow=none;endFill=0;" parent="1" source="caHkFue1k4wD9SIDWnCT-54" target="caHkFue1k4wD9SIDWnCT-59" edge="1">
          <mxGeometry relative="1" as="geometry" />
        </mxCell>
        <mxCell id="caHkFue1k4wD9SIDWnCT-54" value="Country" style="whiteSpace=wrap;html=1;align=center;fillColor=#dae8fc;strokeColor=#6c8ebf;" parent="1" vertex="1">
          <mxGeometry x="-250" y="310" width="100" height="40" as="geometry" />
        </mxCell>
        <mxCell id="caHkFue1k4wD9SIDWnCT-58" value="&lt;u&gt;&lt;b&gt;country_id&lt;/b&gt;&lt;/u&gt;" style="ellipse;whiteSpace=wrap;html=1;align=center;fillColor=#dae8fc;strokeColor=#6c8ebf;" parent="1" vertex="1">
          <mxGeometry x="-230" y="240" width="100" height="40" as="geometry" />
        </mxCell>
        <mxCell id="caHkFue1k4wD9SIDWnCT-59" value="Tax" style="ellipse;whiteSpace=wrap;html=1;align=center;fillColor=#dae8fc;strokeColor=#6c8ebf;" parent="1" vertex="1">
          <mxGeometry x="-340" y="250" width="100" height="40" as="geometry" />
        </mxCell>
        <mxCell id="caHkFue1k4wD9SIDWnCT-65" value="&lt;div&gt;pattern_price&lt;/div&gt;" style="ellipse;whiteSpace=wrap;html=1;align=center;fillColor=#dae8fc;strokeColor=#6c8ebf;" parent="1" vertex="1">
          <mxGeometry x="400" y="35" width="100" height="40" as="geometry" />
        </mxCell>
        <mxCell id="MiYvdM3eh1lu-KrJbxXC-25" style="edgeStyle=orthogonalEdgeStyle;rounded=0;orthogonalLoop=1;jettySize=auto;html=1;entryX=0.5;entryY=1;entryDx=0;entryDy=0;" edge="1" parent="1" source="2LeaAFC_3eUPRFLgof5f-5" target="MiYvdM3eh1lu-KrJbxXC-24">
          <mxGeometry relative="1" as="geometry" />
        </mxCell>
        <mxCell id="MiYvdM3eh1lu-KrJbxXC-49" style="edgeStyle=orthogonalEdgeStyle;rounded=0;orthogonalLoop=1;jettySize=auto;html=1;exitX=1;exitY=0.5;exitDx=0;exitDy=0;entryX=0;entryY=0.5;entryDx=0;entryDy=0;" edge="1" parent="1" source="2LeaAFC_3eUPRFLgof5f-5" target="MiYvdM3eh1lu-KrJbxXC-48">
          <mxGeometry relative="1" as="geometry" />
        </mxCell>
        <mxCell id="2LeaAFC_3eUPRFLgof5f-5" value="Resources" style="whiteSpace=wrap;html=1;align=center;fillColor=#dae8fc;strokeColor=#6c8ebf;" parent="1" vertex="1">
          <mxGeometry x="1150" y="210" width="100" height="40" as="geometry" />
        </mxCell>
        <mxCell id="MiYvdM3eh1lu-KrJbxXC-1" style="edgeStyle=orthogonalEdgeStyle;rounded=0;orthogonalLoop=1;jettySize=auto;html=1;exitX=0;exitY=0;exitDx=0;exitDy=0;entryX=0.41;entryY=1;entryDx=0;entryDy=0;entryPerimeter=0;" edge="1" parent="1" source="2ZaDZYwQvwbcYQ4eUuJH-127" target="2ZaDZYwQvwbcYQ4eUuJH-121">
          <mxGeometry relative="1" as="geometry" />
        </mxCell>
        <mxCell id="MiYvdM3eh1lu-KrJbxXC-2" style="edgeStyle=orthogonalEdgeStyle;rounded=0;orthogonalLoop=1;jettySize=auto;html=1;exitX=1;exitY=0;exitDx=0;exitDy=0;entryX=0.31;entryY=1.025;entryDx=0;entryDy=0;entryPerimeter=0;" edge="1" parent="1" source="2ZaDZYwQvwbcYQ4eUuJH-127" target="2ZaDZYwQvwbcYQ4eUuJH-118">
          <mxGeometry relative="1" as="geometry" />
        </mxCell>
        <mxCell id="MiYvdM3eh1lu-KrJbxXC-5" style="edgeStyle=orthogonalEdgeStyle;rounded=0;orthogonalLoop=1;jettySize=auto;html=1;exitX=1;exitY=0;exitDx=0;exitDy=0;entryX=0.68;entryY=0.925;entryDx=0;entryDy=0;entryPerimeter=0;" edge="1" parent="1" target="caHkFue1k4wD9SIDWnCT-2">
          <mxGeometry relative="1" as="geometry">
            <mxPoint x="50" y="25" as="sourcePoint" />
            <mxPoint x="40" y="-40" as="targetPoint" />
          </mxGeometry>
        </mxCell>
        <mxCell id="MiYvdM3eh1lu-KrJbxXC-3" value="return" style="shape=rhombus;perimeter=rhombusPerimeter;whiteSpace=wrap;html=1;align=center;fillColor=#dae8fc;strokeColor=#6c8ebf;" vertex="1" parent="1">
          <mxGeometry x="-40" y="10" width="120" height="60" as="geometry" />
        </mxCell>
        <mxCell id="MiYvdM3eh1lu-KrJbxXC-13" style="edgeStyle=orthogonalEdgeStyle;rounded=0;orthogonalLoop=1;jettySize=auto;html=1;exitX=0.5;exitY=1;exitDx=0;exitDy=0;entryX=0.5;entryY=0;entryDx=0;entryDy=0;" edge="1" parent="1" source="MiYvdM3eh1lu-KrJbxXC-7" target="2ZaDZYwQvwbcYQ4eUuJH-56">
          <mxGeometry relative="1" as="geometry" />
        </mxCell>
        <mxCell id="MiYvdM3eh1lu-KrJbxXC-7" value="&lt;div&gt;have&lt;/div&gt;" style="shape=rhombus;perimeter=rhombusPerimeter;whiteSpace=wrap;html=1;align=center;fillColor=#dae8fc;strokeColor=#6c8ebf;" vertex="1" parent="1">
          <mxGeometry x="220" y="550" width="120" height="60" as="geometry" />
        </mxCell>
        <mxCell id="MiYvdM3eh1lu-KrJbxXC-11" style="edgeStyle=orthogonalEdgeStyle;rounded=0;orthogonalLoop=1;jettySize=auto;html=1;exitX=0;exitY=0.5;exitDx=0;exitDy=0;entryX=1;entryY=0.5;entryDx=0;entryDy=0;" edge="1" parent="1" source="MiYvdM3eh1lu-KrJbxXC-9" target="caHkFue1k4wD9SIDWnCT-54">
          <mxGeometry relative="1" as="geometry" />
        </mxCell>
        <mxCell id="MiYvdM3eh1lu-KrJbxXC-9" value="belongs" style="shape=rhombus;perimeter=rhombusPerimeter;whiteSpace=wrap;html=1;align=center;fillColor=#dae8fc;strokeColor=#6c8ebf;" vertex="1" parent="1">
          <mxGeometry x="-40" y="300" width="120" height="60" as="geometry" />
        </mxCell>
        <mxCell id="MiYvdM3eh1lu-KrJbxXC-28" style="edgeStyle=orthogonalEdgeStyle;rounded=0;orthogonalLoop=1;jettySize=auto;html=1;exitX=0;exitY=0;exitDx=0;exitDy=0;entryX=0.5;entryY=1;entryDx=0;entryDy=0;" edge="1" parent="1" source="MiYvdM3eh1lu-KrJbxXC-24" target="MiYvdM3eh1lu-KrJbxXC-26">
          <mxGeometry relative="1" as="geometry" />
        </mxCell>
        <mxCell id="MiYvdM3eh1lu-KrJbxXC-29" style="edgeStyle=orthogonalEdgeStyle;rounded=0;orthogonalLoop=1;jettySize=auto;html=1;exitX=1;exitY=0;exitDx=0;exitDy=0;entryX=0.5;entryY=1;entryDx=0;entryDy=0;" edge="1" parent="1" source="MiYvdM3eh1lu-KrJbxXC-24" target="MiYvdM3eh1lu-KrJbxXC-27">
          <mxGeometry relative="1" as="geometry" />
        </mxCell>
        <mxCell id="MiYvdM3eh1lu-KrJbxXC-38" style="edgeStyle=orthogonalEdgeStyle;rounded=0;orthogonalLoop=1;jettySize=auto;html=1;exitX=1;exitY=0.5;exitDx=0;exitDy=0;entryX=0;entryY=0.5;entryDx=0;entryDy=0;endArrow=none;endFill=0;" edge="1" parent="1" source="MiYvdM3eh1lu-KrJbxXC-24">
          <mxGeometry relative="1" as="geometry">
            <mxPoint x="1300" y="140" as="targetPoint" />
          </mxGeometry>
        </mxCell>
        <mxCell id="MiYvdM3eh1lu-KrJbxXC-24" value="contain" style="shape=rhombus;perimeter=rhombusPerimeter;whiteSpace=wrap;html=1;align=center;fillColor=#dae8fc;strokeColor=#6c8ebf;" vertex="1" parent="1">
          <mxGeometry x="1140" y="90" width="120" height="70" as="geometry" />
        </mxCell>
        <mxCell id="MiYvdM3eh1lu-KrJbxXC-43" style="edgeStyle=orthogonalEdgeStyle;rounded=0;orthogonalLoop=1;jettySize=auto;html=1;exitX=0;exitY=0.5;exitDx=0;exitDy=0;entryX=1;entryY=0.5;entryDx=0;entryDy=0;endArrow=none;endFill=0;" edge="1" parent="1" source="MiYvdM3eh1lu-KrJbxXC-26" target="MiYvdM3eh1lu-KrJbxXC-33">
          <mxGeometry relative="1" as="geometry" />
        </mxCell>
        <mxCell id="MiYvdM3eh1lu-KrJbxXC-44" style="edgeStyle=orthogonalEdgeStyle;rounded=0;orthogonalLoop=1;jettySize=auto;html=1;exitX=0;exitY=0.75;exitDx=0;exitDy=0;entryX=1;entryY=0;entryDx=0;entryDy=0;endArrow=none;endFill=0;" edge="1" parent="1" source="MiYvdM3eh1lu-KrJbxXC-26" target="MiYvdM3eh1lu-KrJbxXC-34">
          <mxGeometry relative="1" as="geometry" />
        </mxCell>
        <mxCell id="MiYvdM3eh1lu-KrJbxXC-45" style="edgeStyle=orthogonalEdgeStyle;rounded=0;orthogonalLoop=1;jettySize=auto;html=1;exitX=0;exitY=0.75;exitDx=0;exitDy=0;entryX=0.5;entryY=0;entryDx=0;entryDy=0;endArrow=none;endFill=0;" edge="1" parent="1" source="MiYvdM3eh1lu-KrJbxXC-26" target="MiYvdM3eh1lu-KrJbxXC-36">
          <mxGeometry relative="1" as="geometry" />
        </mxCell>
        <mxCell id="MiYvdM3eh1lu-KrJbxXC-26" value="&lt;div&gt;Images&lt;/div&gt;" style="whiteSpace=wrap;html=1;align=center;fillColor=#dae8fc;strokeColor=#6c8ebf;" vertex="1" parent="1">
          <mxGeometry x="950" y="-20" width="100" height="40" as="geometry" />
        </mxCell>
        <mxCell id="MiYvdM3eh1lu-KrJbxXC-41" style="edgeStyle=orthogonalEdgeStyle;rounded=0;orthogonalLoop=1;jettySize=auto;html=1;exitX=1;exitY=0.5;exitDx=0;exitDy=0;entryX=0;entryY=0.5;entryDx=0;entryDy=0;endArrow=none;endFill=0;" edge="1" parent="1" source="MiYvdM3eh1lu-KrJbxXC-27" target="MiYvdM3eh1lu-KrJbxXC-39">
          <mxGeometry relative="1" as="geometry" />
        </mxCell>
        <mxCell id="MiYvdM3eh1lu-KrJbxXC-42" style="edgeStyle=orthogonalEdgeStyle;rounded=0;orthogonalLoop=1;jettySize=auto;html=1;exitX=1;exitY=0.75;exitDx=0;exitDy=0;entryX=0;entryY=0.5;entryDx=0;entryDy=0;endArrow=none;endFill=0;" edge="1" parent="1" source="MiYvdM3eh1lu-KrJbxXC-27" target="MiYvdM3eh1lu-KrJbxXC-40">
          <mxGeometry relative="1" as="geometry" />
        </mxCell>
        <mxCell id="MiYvdM3eh1lu-KrJbxXC-27" value="&lt;div&gt;PDF_files&lt;/div&gt;" style="whiteSpace=wrap;html=1;align=center;fillColor=#dae8fc;strokeColor=#6c8ebf;" vertex="1" parent="1">
          <mxGeometry x="1300" y="-20" width="100" height="40" as="geometry" />
        </mxCell>
        <mxCell id="MiYvdM3eh1lu-KrJbxXC-33" value="&lt;u&gt;&lt;b&gt;imagen_id&lt;/b&gt;&lt;/u&gt;" style="ellipse;whiteSpace=wrap;html=1;align=center;fillColor=#dae8fc;strokeColor=#6c8ebf;" vertex="1" parent="1">
          <mxGeometry x="760" y="-20" width="100" height="40" as="geometry" />
        </mxCell>
        <mxCell id="MiYvdM3eh1lu-KrJbxXC-34" value="main_image" style="ellipse;whiteSpace=wrap;html=1;align=center;fillColor=#dae8fc;strokeColor=#6c8ebf;" vertex="1" parent="1">
          <mxGeometry x="780" y="30" width="100" height="40" as="geometry" />
        </mxCell>
        <mxCell id="MiYvdM3eh1lu-KrJbxXC-36" value="order" style="ellipse;whiteSpace=wrap;html=1;align=center;fillColor=#dae8fc;strokeColor=#6c8ebf;" vertex="1" parent="1">
          <mxGeometry x="880" y="55" width="100" height="40" as="geometry" />
        </mxCell>
        <mxCell id="MiYvdM3eh1lu-KrJbxXC-39" value="&lt;u&gt;&lt;b&gt;file_id&lt;br&gt;&lt;/b&gt;&lt;/u&gt;" style="ellipse;whiteSpace=wrap;html=1;align=center;fillColor=#dae8fc;strokeColor=#6c8ebf;" vertex="1" parent="1">
          <mxGeometry x="1430" y="-60" width="100" height="40" as="geometry" />
        </mxCell>
        <mxCell id="MiYvdM3eh1lu-KrJbxXC-40" value="language" style="ellipse;whiteSpace=wrap;html=1;align=center;fillColor=#dae8fc;strokeColor=#6c8ebf;" vertex="1" parent="1">
          <mxGeometry x="1430" y="10" width="100" height="40" as="geometry" />
        </mxCell>
        <mxCell id="MiYvdM3eh1lu-KrJbxXC-47" value="public" style="ellipse;whiteSpace=wrap;html=1;align=center;fillColor=#dae8fc;strokeColor=#6c8ebf;" vertex="1" parent="1">
          <mxGeometry x="1300" y="120" width="100" height="40" as="geometry" />
        </mxCell>
        <mxCell id="MiYvdM3eh1lu-KrJbxXC-57" style="edgeStyle=orthogonalEdgeStyle;rounded=0;orthogonalLoop=1;jettySize=auto;html=1;exitX=1;exitY=0.5;exitDx=0;exitDy=0;" edge="1" parent="1" source="MiYvdM3eh1lu-KrJbxXC-48" target="MiYvdM3eh1lu-KrJbxXC-50">
          <mxGeometry relative="1" as="geometry" />
        </mxCell>
        <mxCell id="MiYvdM3eh1lu-KrJbxXC-48" value="can be" style="shape=rhombus;perimeter=rhombusPerimeter;whiteSpace=wrap;html=1;align=center;fillColor=#dae8fc;strokeColor=#6c8ebf;" vertex="1" parent="1">
          <mxGeometry x="1310" y="195" width="120" height="70" as="geometry" />
        </mxCell>
        <mxCell id="MiYvdM3eh1lu-KrJbxXC-54" style="edgeStyle=orthogonalEdgeStyle;rounded=0;orthogonalLoop=1;jettySize=auto;html=1;exitX=0.25;exitY=0;exitDx=0;exitDy=0;entryX=1;entryY=1;entryDx=0;entryDy=0;endArrow=none;endFill=0;" edge="1" parent="1" source="MiYvdM3eh1lu-KrJbxXC-50" target="MiYvdM3eh1lu-KrJbxXC-51">
          <mxGeometry relative="1" as="geometry" />
        </mxCell>
        <mxCell id="MiYvdM3eh1lu-KrJbxXC-50" value="&lt;div&gt;Type_Resource&lt;br&gt;&lt;/div&gt;" style="whiteSpace=wrap;html=1;align=center;fillColor=#dae8fc;strokeColor=#6c8ebf;" vertex="1" parent="1">
          <mxGeometry x="1500" y="210" width="100" height="40" as="geometry" />
        </mxCell>
        <mxCell id="MiYvdM3eh1lu-KrJbxXC-51" value="&lt;u&gt;&lt;b&gt;type_id&lt;/b&gt;&lt;/u&gt;" style="ellipse;whiteSpace=wrap;html=1;align=center;fillColor=#dae8fc;strokeColor=#6c8ebf;" vertex="1" parent="1">
          <mxGeometry x="1420" y="150" width="100" height="40" as="geometry" />
        </mxCell>
        <mxCell id="MiYvdM3eh1lu-KrJbxXC-52" value="is_imagen" style="ellipse;whiteSpace=wrap;html=1;align=center;fillColor=#dae8fc;strokeColor=#6c8ebf;" vertex="1" parent="1">
          <mxGeometry x="1510" y="95" width="100" height="40" as="geometry" />
        </mxCell>
        <mxCell id="MiYvdM3eh1lu-KrJbxXC-53" value="is_pdf" style="ellipse;whiteSpace=wrap;html=1;align=center;fillColor=#dae8fc;strokeColor=#6c8ebf;" vertex="1" parent="1">
          <mxGeometry x="1560" y="150" width="100" height="40" as="geometry" />
        </mxCell>
        <mxCell id="MiYvdM3eh1lu-KrJbxXC-55" style="edgeStyle=orthogonalEdgeStyle;rounded=0;orthogonalLoop=1;jettySize=auto;html=1;exitX=0.5;exitY=0;exitDx=0;exitDy=0;entryX=0.4;entryY=1.025;entryDx=0;entryDy=0;entryPerimeter=0;endArrow=none;endFill=0;" edge="1" parent="1" source="MiYvdM3eh1lu-KrJbxXC-50" target="MiYvdM3eh1lu-KrJbxXC-52">
          <mxGeometry relative="1" as="geometry" />
        </mxCell>
        <mxCell id="MiYvdM3eh1lu-KrJbxXC-56" style="edgeStyle=orthogonalEdgeStyle;rounded=0;orthogonalLoop=1;jettySize=auto;html=1;exitX=0.75;exitY=0;exitDx=0;exitDy=0;entryX=0.33;entryY=1.05;entryDx=0;entryDy=0;entryPerimeter=0;endArrow=none;endFill=0;" edge="1" parent="1" source="MiYvdM3eh1lu-KrJbxXC-50" target="MiYvdM3eh1lu-KrJbxXC-53">
          <mxGeometry relative="1" as="geometry" />
        </mxCell>
        <mxCell id="MiYvdM3eh1lu-KrJbxXC-60" style="edgeStyle=orthogonalEdgeStyle;rounded=0;orthogonalLoop=1;jettySize=auto;html=1;exitX=1;exitY=0.5;exitDx=0;exitDy=0;entryX=0.75;entryY=1;entryDx=0;entryDy=0;" edge="1" parent="1" source="MiYvdM3eh1lu-KrJbxXC-58" target="2LeaAFC_3eUPRFLgof5f-5">
          <mxGeometry relative="1" as="geometry">
            <mxPoint x="1225" y="230" as="targetPoint" />
            <mxPoint x="340" y="1395" as="sourcePoint" />
            <Array as="points">
              <mxPoint x="1310" y="1415" />
              <mxPoint x="1310" y="270" />
              <mxPoint x="1225" y="270" />
            </Array>
          </mxGeometry>
        </mxCell>
        <mxCell id="MiYvdM3eh1lu-KrJbxXC-58" value="contains" style="shape=rhombus;perimeter=rhombusPerimeter;whiteSpace=wrap;html=1;align=center;fillColor=#dae8fc;strokeColor=#6c8ebf;" vertex="1" parent="1">
          <mxGeometry x="220" y="1380" width="120" height="70" as="geometry" />
        </mxCell>
        <mxCell id="MiYvdM3eh1lu-KrJbxXC-64" style="edgeStyle=orthogonalEdgeStyle;rounded=0;orthogonalLoop=1;jettySize=auto;html=1;exitX=0.5;exitY=0;exitDx=0;exitDy=0;entryX=1;entryY=1;entryDx=0;entryDy=0;" edge="1" parent="1" source="MiYvdM3eh1lu-KrJbxXC-62" target="2LeaAFC_3eUPRFLgof5f-5">
          <mxGeometry relative="1" as="geometry">
            <Array as="points">
              <mxPoint x="1410" y="340" />
              <mxPoint x="1340" y="340" />
              <mxPoint x="1340" y="270" />
              <mxPoint x="1250" y="270" />
            </Array>
          </mxGeometry>
        </mxCell>
        <mxCell id="MiYvdM3eh1lu-KrJbxXC-62" value="contain" style="shape=rhombus;perimeter=rhombusPerimeter;whiteSpace=wrap;html=1;align=center;fillColor=#dae8fc;strokeColor=#6c8ebf;" vertex="1" parent="1">
          <mxGeometry x="1350" y="380" width="120" height="70" as="geometry" />
        </mxCell>
        <mxCell id="MiYvdM3eh1lu-KrJbxXC-68" style="edgeStyle=orthogonalEdgeStyle;rounded=0;orthogonalLoop=1;jettySize=auto;html=1;exitX=0;exitY=0.5;exitDx=0;exitDy=0;entryX=1;entryY=0.5;entryDx=0;entryDy=0;" edge="1" parent="1" source="MiYvdM3eh1lu-KrJbxXC-65" target="MiYvdM3eh1lu-KrJbxXC-67">
          <mxGeometry relative="1" as="geometry" />
        </mxCell>
        <mxCell id="MiYvdM3eh1lu-KrJbxXC-65" value="&lt;div&gt;have&lt;/div&gt;" style="shape=rhombus;perimeter=rhombusPerimeter;whiteSpace=wrap;html=1;align=center;fillColor=#dae8fc;strokeColor=#6c8ebf;" vertex="1" parent="1">
          <mxGeometry x="100" y="440" width="120" height="60" as="geometry" />
        </mxCell>
        <mxCell id="MiYvdM3eh1lu-KrJbxXC-70" style="edgeStyle=orthogonalEdgeStyle;rounded=0;orthogonalLoop=1;jettySize=auto;html=1;exitX=0.5;exitY=1;exitDx=0;exitDy=0;entryX=0.5;entryY=0;entryDx=0;entryDy=0;endArrow=none;endFill=0;" edge="1" parent="1" source="MiYvdM3eh1lu-KrJbxXC-67" target="2ZaDZYwQvwbcYQ4eUuJH-52">
          <mxGeometry relative="1" as="geometry" />
        </mxCell>
        <mxCell id="MiYvdM3eh1lu-KrJbxXC-67" value="Role" style="whiteSpace=wrap;html=1;align=center;fillColor=#dae8fc;strokeColor=#6c8ebf;" vertex="1" parent="1">
          <mxGeometry x="-60" y="450" width="100" height="40" as="geometry" />
        </mxCell>
        <mxCell id="MiYvdM3eh1lu-KrJbxXC-69" value="&lt;u&gt;&lt;b&gt;library_id&lt;/b&gt;&lt;/u&gt;" style="ellipse;whiteSpace=wrap;html=1;align=center;fillColor=#dae8fc;strokeColor=#6c8ebf;" vertex="1" parent="1">
          <mxGeometry x="90" y="630" width="100" height="40" as="geometry" />
        </mxCell>
        <mxCell id="MiYvdM3eh1lu-KrJbxXC-75" style="edgeStyle=orthogonalEdgeStyle;rounded=0;orthogonalLoop=1;jettySize=auto;html=1;exitX=1;exitY=0.5;exitDx=0;exitDy=0;entryX=1;entryY=0.75;entryDx=0;entryDy=0;" edge="1" parent="1" source="MiYvdM3eh1lu-KrJbxXC-72" target="2LeaAFC_3eUPRFLgof5f-5">
          <mxGeometry relative="1" as="geometry">
            <mxPoint x="1360" y="600" as="targetPoint" />
            <Array as="points">
              <mxPoint x="1330" y="1515" />
              <mxPoint x="1330" y="250" />
              <mxPoint x="1250" y="250" />
            </Array>
          </mxGeometry>
        </mxCell>
        <mxCell id="MiYvdM3eh1lu-KrJbxXC-72" value="upload" style="shape=rhombus;perimeter=rhombusPerimeter;whiteSpace=wrap;html=1;align=center;fillColor=#dae8fc;strokeColor=#6c8ebf;" vertex="1" parent="1">
          <mxGeometry x="-150" y="1480" width="120" height="70" as="geometry" />
        </mxCell>
        <mxCell id="MiYvdM3eh1lu-KrJbxXC-73" value="upload_date" style="ellipse;whiteSpace=wrap;html=1;align=center;fillColor=#dae8fc;strokeColor=#6c8ebf;" vertex="1" parent="1">
          <mxGeometry x="-40" y="1440" width="100" height="40" as="geometry" />
        </mxCell>
        <mxCell id="MiYvdM3eh1lu-KrJbxXC-74" style="edgeStyle=orthogonalEdgeStyle;rounded=0;orthogonalLoop=1;jettySize=auto;html=1;exitX=1;exitY=0;exitDx=0;exitDy=0;entryX=0.08;entryY=0.725;entryDx=0;entryDy=0;entryPerimeter=0;endArrow=none;endFill=0;" edge="1" parent="1" source="MiYvdM3eh1lu-KrJbxXC-72" target="MiYvdM3eh1lu-KrJbxXC-73">
          <mxGeometry relative="1" as="geometry" />
        </mxCell>
        <mxCell id="MiYvdM3eh1lu-KrJbxXC-79" style="edgeStyle=orthogonalEdgeStyle;rounded=0;orthogonalLoop=1;jettySize=auto;html=1;exitX=0.5;exitY=1;exitDx=0;exitDy=0;" edge="1" parent="1" source="MiYvdM3eh1lu-KrJbxXC-76" target="MiYvdM3eh1lu-KrJbxXC-78">
          <mxGeometry relative="1" as="geometry" />
        </mxCell>
        <mxCell id="MiYvdM3eh1lu-KrJbxXC-83" style="edgeStyle=orthogonalEdgeStyle;rounded=0;orthogonalLoop=1;jettySize=auto;html=1;exitX=0;exitY=0.5;exitDx=0;exitDy=0;" edge="1" parent="1" source="MiYvdM3eh1lu-KrJbxXC-76" target="MiYvdM3eh1lu-KrJbxXC-82">
          <mxGeometry relative="1" as="geometry" />
        </mxCell>
        <mxCell id="MiYvdM3eh1lu-KrJbxXC-76" value="have" style="shape=rhombus;perimeter=rhombusPerimeter;whiteSpace=wrap;html=1;align=center;fillColor=#dae8fc;strokeColor=#6c8ebf;" vertex="1" parent="1">
          <mxGeometry x="90" y="990" width="120" height="60" as="geometry" />
        </mxCell>
        <mxCell id="MiYvdM3eh1lu-KrJbxXC-81" style="edgeStyle=orthogonalEdgeStyle;rounded=0;orthogonalLoop=1;jettySize=auto;html=1;exitX=0.25;exitY=1;exitDx=0;exitDy=0;entryX=0.5;entryY=0;entryDx=0;entryDy=0;endArrow=none;endFill=0;" edge="1" parent="1" source="MiYvdM3eh1lu-KrJbxXC-78" target="MiYvdM3eh1lu-KrJbxXC-80">
          <mxGeometry relative="1" as="geometry" />
        </mxCell>
        <mxCell id="MiYvdM3eh1lu-KrJbxXC-78" value="Notes" style="whiteSpace=wrap;html=1;align=center;fillColor=#dae8fc;strokeColor=#6c8ebf;" vertex="1" parent="1">
          <mxGeometry x="100" y="1100" width="100" height="40" as="geometry" />
        </mxCell>
        <mxCell id="MiYvdM3eh1lu-KrJbxXC-80" value="&lt;b&gt;&lt;u&gt;notes_id&lt;/u&gt;&lt;/b&gt;" style="ellipse;whiteSpace=wrap;html=1;align=center;fillColor=#dae8fc;strokeColor=#6c8ebf;" vertex="1" parent="1">
          <mxGeometry x="20" y="1180" width="100" height="40" as="geometry" />
        </mxCell>
        <mxCell id="MiYvdM3eh1lu-KrJbxXC-82" value="creation_date" style="ellipse;whiteSpace=wrap;html=1;fillColor=#dae8fc;strokeColor=#6c8ebf;" vertex="1" parent="1">
          <mxGeometry x="-35" y="995" width="90" height="50" as="geometry" />
        </mxCell>
      </root>
    </mxGraphModel>
  </diagram>
</mxfile>
